<svg xmlns="http://www.w3.org/2000/svg" width="90" height="90" fill="none"><path fill="#fff" d="M85.781 11.25h-1.648a4.215 4.215 0 0 0-3.977-5.625H25.312c-.277 0-.549.082-.78.236l-4.218 2.813a1.406 1.406 0 0 0 0 2.34l.354.236h-3.793V4.219a1.406 1.406 0 0 0-1.406-1.407H9.844a7.04 7.04 0 0 0-7.031 7.032v70.312a7.04 7.04 0 0 0 7.03 7.031h75.938a1.407 1.407 0 0 0 1.406-1.406V12.656a1.407 1.407 0 0 0-1.406-1.406Zm-8.437-2.813h2.812a1.406 1.406 0 1 1 0 2.813h-2.812V8.437Zm-51.606 0h48.793v2.813H25.738l-2.11-1.406 2.11-1.406ZM5.625 9.845a4.224 4.224 0 0 1 4.219-4.219h4.219v67.5h-4.22a6.995 6.995 0 0 0-4.218 1.41V9.844Zm35.156 47.812V78.75h-2.93a8.452 8.452 0 0 0-8.32-7.031 1.406 1.406 0 0 0-1.406 1.406v5.625h-2.813V52.031h2.93a8.451 8.451 0 0 0 8.32 7.032 1.406 1.406 0 0 0 1.407-1.407v-5.625H63.28v4.219H42.188a1.406 1.406 0 0 0-1.407 1.406Zm-11.25-32.343h11.25a1.406 1.406 0 0 0 1.407-1.407v-4.218H45v18.28a1.406 1.406 0 0 0 1.406 1.407h5.447a5.635 5.635 0 0 1-5.447 4.219A1.406 1.406 0 0 0 45 45v4.219h-8.438a1.406 1.406 0 0 0-1.406 1.406v5.447a5.635 5.635 0 0 1-4.218-5.447 1.406 1.406 0 0 0-1.407-1.406h-4.218V19.687h2.812v4.22a1.406 1.406 0 0 0 1.406 1.405Zm1.407-2.813v-2.813h8.437V22.5h-8.438ZM56.25 35.156h14.063a1.406 1.406 0 0 0 1.406-1.406v-5.625h4.219v9.844h-5.626a1.406 1.406 0 0 0-1.406 1.406v9.844H47.812v-2.93a8.45 8.45 0 0 0 7.032-8.32 1.406 1.406 0 0 0-1.407-1.407h-5.624v-8.437h7.03v5.625a1.406 1.406 0 0 0 1.407 1.406Zm1.406-2.812v-4.219h11.25v4.219h-11.25Zm18.282 8.437v8.438h-4.22V40.78h4.22ZM43.593 59.063h23.324L43.594 82.386V59.063Zm29.531 25.312h-2.813v-8.438h2.813v8.438Zm5.625 0h-2.813v-9.844a1.407 1.407 0 0 0-1.406-1.406h-5.625a1.407 1.407 0 0 0-1.406 1.406v9.844h-2.813V73.707l7.032-7.03 7.031 7.03v10.668Zm5.625 0h-2.813v-11.25c0-.373-.148-.73-.411-.994l-8.438-8.438a1.406 1.406 0 0 0-1.989 0l-8.437 8.438a1.407 1.407 0 0 0-.412.994v11.25H45.583l25.724-25.724a1.406 1.406 0 0 0-.995-2.401h-4.218v-4.219h11.25a1.406 1.406 0 0 0 1.406-1.406V26.719a1.406 1.406 0 0 0-1.406-1.407H47.813v-7.03a1.406 1.406 0 0 0-1.407-1.407h-22.5a1.406 1.406 0 0 0-1.406 1.406v61.875a1.406 1.406 0 0 0 1.406 1.406h5.625a1.406 1.406 0 0 0 1.407-1.406V74.71a5.636 5.636 0 0 1 4.218 5.447 1.406 1.406 0 0 0 1.407 1.406h4.218v2.813H9.844a4.219 4.219 0 0 1 0-8.438h5.625a1.407 1.407 0 0 0 1.406-1.406V14.062h67.5v70.313Z"/><path fill="#fff" d="M28.125 45a1.406 1.406 0 0 0 1.406 1.406h11.25A1.406 1.406 0 0 0 42.188 45V29.531a1.406 1.406 0 0 0-1.407-1.406h-11.25a1.406 1.406 0 0 0-1.406 1.406V45Zm2.813-14.063h8.437v12.657h-8.438V30.937ZM57.55 62.743a1.407 1.407 0 0 0-1.3-.868h-8.438a1.406 1.406 0 0 0-1.406 1.406v8.438a1.407 1.407 0 0 0 2.4.994l8.438-8.437a1.406 1.406 0 0 0 .305-1.533Zm-8.331 5.58v-3.635h3.636l-3.636 3.636Z"/></svg>