<svg xmlns="http://www.w3.org/2000/svg" fill="none" viewBox="0 0 101 114">
    <path fill="#fff"
        d="M10.97 75.318a10.196 10.196 0 0 1 8.888-2.09v-9.012h1.665v9.558c3.658 1.565 6.229 5.199 6.229 9.423 0 3.222-1.497 6.1-3.83 7.978h.53c.073 0 .146.003.218.007.9.02 2.279.212 3.836.999.66.33 1.297.748 1.905 1.238V39.625c1.736-.161 4.186-.432 7.022-.868 5.594-.868 12.664-2.354 18.806-5.032a2.877 2.877 0 0 0 1.48-3.788 2.874 2.874 0 0 0-3.786-1.48c-5.359 2.35-12.067 3.803-17.375 4.616-2.657.41-4.968.666-6.607.82a86.595 86.595 0 0 1-2.317.186H13.747c-.037 0-.073.005-.11.006-.646.005-1.736.142-2.975.767-1.933.959-4.016 3.056-5.474 6.771-1.477 3.732-2.468 9.125-2.473 17.27 0 2.104.068 4.393.214 6.886a2.876 2.876 0 0 0 5.741-.337c-.14-2.39-.204-4.568-.204-6.55-.012-8.705 1.257-13.595 2.504-16.146v32.572ZM20.689 32.031a8.087 8.087 0 1 0 0-16.174 8.087 8.087 0 0 0 0 16.174Z" />
    <path fill="#fff"
        d="M44.841 52.645h55.593V0H21.721v13.178h1.438V1.438h75.837v49.768l-54.155.001v1.438ZM16.547 91.175h2.638a8.086 8.086 0 0 0-1.319-16.065 8.087 8.087 0 0 0-1.319 16.065ZM57.043 83.197a8.087 8.087 0 1 0-9.406 7.978h2.638a8.088 8.088 0 0 0 6.768-7.978ZM8.147 102v11.778h19.441v-11.762c.213.437.429.938.64 1.523.791 2.191 1.481 5.484 1.746 10.239h6.153c.335-6.032 1.37-9.69 2.39-11.778v11.778H57.96v-11.762c.213.437.429.938.64 1.523.791 2.191 1.482 5.484 1.746 10.239h6.153c.335-6.032 1.37-9.69 2.39-11.778v11.778H88.33v-11.762c.213.437.429.938.64 1.523.791 2.191 1.481 5.484 1.746 10.239h5.757c-.415-8.148-1.976-13.002-4-16.095-1.18-1.792-2.562-2.941-3.838-3.578-1.228-.62-2.308-.759-2.956-.767-.042-.002-.084-.007-.126-.007h-5.465a10.267 10.267 0 0 1-2.957 0h-5.465c-.047 0-.094.005-.142.007-.65.01-1.722.152-2.941.767-1.8.891-3.728 2.77-5.162 6.021-.41-.92-.852-1.73-1.32-2.443-1.18-1.792-2.56-2.941-3.838-3.578-1.227-.62-2.307-.759-2.955-.767-.042-.002-.084-.007-.126-.007H41.295c-.048 0-.094.005-.142.007-.65.01-1.722.152-2.941.767-1.8.891-3.728 2.77-5.163 6.021-.409-.92-.851-1.73-1.318-2.443-1.18-1.792-2.562-2.941-3.839-3.578-1.227-.62-2.307-.759-2.955-.767-.042-.002-.084-.007-.126-.007H10.924c-.048 0-.095.005-.142.007-.65.01-1.722.152-2.941.767-1.934.958-4.018 3.055-5.477 6.772C1.17 103.896.294 108.005 0 113.778h5.756c.335-6.032 1.37-9.69 2.39-11.778ZM79.327 91.284a8.087 8.087 0 1 0 0-16.174 8.087 8.087 0 0 0 0 16.174Z" />
    <path fill="#fff"
        d="M55.624 12.532h-8.267v1.438h8.267v-1.438ZM86.323 7.95h-8.266v1.437h8.266V7.949ZM42.832 4.784H27.018V6.22h15.814V4.784ZM36.754 8.198h-9.736v1.438h9.736V8.198ZM61.016 20.68v-.72H53.94l-2.3-5.178-.657.292 2.49 5.605h7.543ZM74.73 14.509h5.506l2.351-3.95-.617-.367-2.142 3.598H74.73v.719ZM92.884 18.373h-8.267v1.437h8.267v-1.437ZM89.15 20.982l-.617-.367-2.143 3.598h-7.704v.719h8.113l2.351-3.95ZM90.609 38.83h-8.267v1.437h8.267V38.83ZM76.408 34.426h7.705l2.143 3.599.617-.368-2.351-3.95h-8.114v.72ZM57.599 45.868h-8.267v1.438h8.267v-1.438ZM55.825 41.465h7.706v-.719h-8.114l-2.35 3.95.616.368v-.001l2.142-3.598Z" />
    <path fill="#fff"
        d="M78.353 25.365a.72.72 0 0 0-.215-.505l-2.05-1.834-7.49-6.67a.716.716 0 0 0-.954 0l-7.471 6.67-2.07 1.834a.733.733 0 0 0-.234.476.724.724 0 0 0 .568.758c0 .024 1.43 0 1.478 0v9.852a.714.714 0 0 0 .716.715h4.842a.718.718 0 0 0 .74-.715v-5.927h3.863v5.927a.714.714 0 0 0 .716.715h4.799a.716.716 0 0 0 .716-.715v-9.838h1.478a.72.72 0 0 0 .568-.743Z" />
</svg>