<svg width="106" height="89" viewBox="0 0 106 89" fill="none" xmlns="http://www.w3.org/2000/svg">
<path d="M95.5794 16.446H75.8442C70.2525 16.446 65.9766 20.7219 65.9766 26.3136V78.9408C65.9766 84.5324 70.2525 88.8084 75.8442 88.8084H95.5794C101.171 88.8084 105.447 84.5324 105.447 78.9408V26.3136C105.447 20.7219 101.171 16.446 95.5794 16.446ZM98.8686 78.9408C98.8686 80.9143 97.5529 82.23 95.5794 82.23H75.8442C73.8706 82.23 72.555 80.9143 72.555 78.9408V26.3136C72.555 24.3401 73.8706 23.0244 75.8442 23.0244V24.0111C75.8442 28.9449 79.7912 32.892 84.725 32.892H86.6985C91.6323 32.892 95.5794 28.9449 95.5794 24.0111V23.0244C97.5529 23.0244 98.8686 24.3401 98.8686 26.3136V78.9408Z" fill="#003EF9"/>
<path d="M92.29 69.0732H79.1332C77.1597 69.0732 75.844 70.3889 75.844 72.3624C75.844 74.336 77.1597 75.6516 79.1332 75.6516H92.29C94.2635 75.6516 95.5792 74.336 95.5792 72.3624C95.5792 70.3889 94.2635 69.0732 92.29 69.0732Z" fill="#003EF9"/>
<path d="M59.3981 75.6516H31.4399C31.4399 75.9805 31.4399 76.3094 31.111 76.3094C30.1242 79.9275 26.8351 82.2299 23.2169 82.2299C21.2434 82.2299 19.9277 83.5456 19.9277 85.5191C19.9277 87.4927 21.2434 88.8083 23.2169 88.8083H62.6873C60.7138 86.177 59.3981 82.5589 59.3981 78.9407V75.6516Z" fill="#003EF9"/>
<path d="M92.2902 9.8676C92.2902 4.27596 88.0142 0 82.4226 0H10.0602C4.46859 0 0.192627 4.27596 0.192627 9.8676V59.2056C0.192627 64.7972 4.46859 69.0732 10.0602 69.0732H32.7557H59.3982V26.3136C59.3982 17.1038 66.6344 9.8676 75.8442 9.8676H92.2902Z" fill="#003EF9"/>
</svg>
