<svg xmlns="http://www.w3.org/2000/svg" width="439" height="102" fill="none">
  <g fill="#fff" clip-path="url(#a)">
    <path d="M51.235 63.3h18.508v12.31a48.982 48.982 0 0 1-9.393 3.818c-3.231.935-6.223 1.412-8.995 1.412-5.465 0-10.43-1.312-14.958-3.937-4.507-2.625-8.097-6.245-10.73-10.839-2.632-4.593-3.948-9.645-3.948-15.173 0-5.529 1.296-10.54 3.889-15.055 2.592-4.494 6.142-8.074 10.67-10.699 4.507-2.625 9.493-3.938 14.957-3.938 4.567 0 8.995.935 13.283 2.804 4.288 1.87 8.177 4.455 11.667 7.756L88.11 16.645C83.285 12.37 77.681 8.97 71.28 6.483c-6.402-2.486-13.083-3.739-20.044-3.739-9.573 0-18.268 2.089-26.086 6.285-7.818 4.196-13.98 9.963-18.448 17.321C2.234 33.708 0 41.882 0 50.89c0 9.01 2.194 17.322 6.561 24.68 4.388 7.358 10.371 13.146 17.97 17.381 7.598 4.236 16.094 6.344 25.488 6.344 6.442 0 13.282-1.133 20.522-3.4 7.24-2.267 13.362-5.23 18.368-8.89V44.07H51.215v19.25l.02-.019ZM418.897 4.196v60.456L373.285 4.196H353.98v93.608h20.243V37.626l45.471 60.178H439V4.196h-20.103ZM347.299 38.123c-2.473-8.392-7.02-15.89-13.661-22.512-6.701-6.682-14.24-11.236-22.617-13.662-8.376-2.426-16.732-2.605-25.089-.517-8.336 2.088-15.715 6.304-22.097 12.668-.1.1-.18.199-.279.298l-.1.12a54.502 54.502 0 0 0-4.288 4.931c-22.018 22.89-59.372 22.77-81.131-1.253-6.701-6.682-14.24-11.236-22.616-13.662s-16.733-2.605-25.089-.517c-8.337 2.088-15.716 6.304-22.098 12.668-6.382 6.364-10.71 13.802-12.803 22.134-2.095 8.313-1.915 16.685.518 25.097 2.433 8.413 6.96 15.93 13.602 22.552 6.641 6.623 14.18 11.137 22.616 13.563s16.852 2.585 25.228.477c8.377-2.108 15.756-6.343 22.138-12.727.1-.1.179-.199.279-.299l.18-.198a49.304 49.304 0 0 0 4.068-4.654c20.422-23.168 56.361-24.242 78-2.108a60.312 60.312 0 0 0 3.091 3.361c6.641 6.622 14.18 11.137 22.616 13.563s16.853 2.585 25.229.477c8.376-2.108 15.755-6.344 22.137-12.728 6.382-6.383 10.63-13.702 12.705-22.034 2.094-8.313 1.894-16.665-.579-25.058l.04.02Zm-193.613 42.24c-5.804 2.009-11.827 2.128-17.351.656l-.598-.12c-4.926-1.192-9.234-3.618-12.904-7.278-3.251-3.241-5.524-7-6.861-11.295-.02-.08-.059-.14-.079-.2-5.385-15.451 2.812-32.315 18.288-37.685 7.02-2.426 14.3-2.068 20.702.477a28.036 28.036 0 0 1 10.251 6.543c3.25 3.242 5.524 6.98 6.84 11.196v.02c5.385 15.452-2.812 32.316-18.288 37.686Zm155.6-2.884c-3.35 1.174-6.78 1.651-10.131 1.611-2.613.1-5.225-.159-7.818-.775-4.926-1.194-9.234-3.62-12.903-7.279-3.67-3.66-6.123-7.995-7.36-13.006-.04-.179-.079-.338-.119-.517-4.228-14.955 3.889-30.805 18.807-35.975 12.803-4.435 26.584.397 34.004 10.917.358.498.678.995.997 1.492.119.199.259.418.379.616.359.637.718 1.273 1.037 1.95.518 1.053.997 2.127 1.376 3.26 5.385 15.453-2.812 32.317-18.289 37.687l.02.02Z"/>
  </g>
  <defs>
    <clipPath id="a">
      <path fill="#fff" d="M0 0h439v102H0z"/>
    </clipPath>
  </defs>
</svg>