<svg width="76" height="89" viewBox="0 0 76 89" fill="none" xmlns="http://www.w3.org/2000/svg">
<path d="M75.8211 47.347C75.5859 46.6974 75.2326 46.0955 74.7785 45.5707C74.3195 45.0178 70.9538 41.8842 69.8149 40.7783C68.5456 39.5438 67.18 38.0525 66.891 36.2483C66.9024 34.5224 66.9024 33.4164 66.9024 33.2377C66.9074 25.6313 64.2355 18.2587 59.3425 12.3772C54.4495 6.4957 47.6383 2.46948 40.0705 0.985141L39.8661 28.8354C41.3718 29.8439 42.6268 31.1748 43.5374 32.7287C44.448 34.2825 44.9907 36.019 45.1249 37.8086C45.2591 39.5982 44.9814 41.3946 44.3125 43.0635C43.6435 44.7324 42.6007 46.2308 41.2619 47.4467C45.0323 50.7714 48.3179 53.0191 51.1188 54.1897C51.2848 53.9838 51.4701 53.7937 51.6721 53.6219C52.4365 52.9766 53.4105 52.6232 54.4169 52.6261H58.843C59.9615 52.6253 61.0347 53.0611 61.828 53.8383C62.6214 54.6154 63.0702 55.6706 63.0765 56.7731V56.7993C63.077 57.5075 62.8942 58.2041 62.5453 58.8232C62.1964 59.4422 61.693 59.9633 61.0827 60.337C60.4128 60.7548 59.6358 60.9752 58.843 60.9725H54.4169C53.4076 60.9725 52.4318 60.6156 51.6667 59.9667C50.9017 59.3177 50.3982 58.4197 50.2479 57.4358C46.8105 56.099 42.8978 53.4355 38.401 49.3874C35.5294 50.7855 32.2125 51.0036 29.1781 49.9937C26.1436 48.9839 23.6395 46.8286 22.2152 44.0009C20.7909 41.1732 20.5628 37.9039 21.5808 34.9106C22.5989 31.9172 24.78 29.4442 27.6455 28.0343L31.4518 0.41687C26.1128 0.747193 20.9327 2.33812 16.3482 5.05551C11.7636 7.7729 7.90907 11.5371 5.10955 16.0307C2.31002 20.5243 0.647581 25.6156 0.262395 30.8752C-0.122791 36.1349 0.78057 41.4088 2.89631 46.2522C6.47664 54.2773 8.35474 62.9392 8.41523 71.7059V78.6991C8.41634 79.3047 8.63041 79.8911 9.02095 80.3586C9.4115 80.8261 9.95437 81.1457 10.5571 81.2628L49.6146 88.9208C49.7856 88.9548 49.9621 88.9525 50.1321 88.914C50.3022 88.8755 50.4619 88.8018 50.6008 88.6977C50.7397 88.5935 50.8544 88.4614 50.9374 88.3102C51.0205 88.1589 51.0698 87.9919 51.0822 87.8204C51.3938 83.4245 51.8868 75.4929 51.9774 75.1689H52.3288C54.0683 75.1745 55.8022 75.1801 57.5417 75.1801C59.9782 75.1857 63.0606 75.6046 65.0155 73.8395C66.0366 72.7808 66.6362 71.3946 66.7041 69.9352C66.7267 69.7732 69.4352 52.1785 69.4352 52.1785L69.5881 51.9941C69.9235 51.7879 70.2832 51.6229 70.6591 51.5026C71.3277 51.2178 71.9963 50.9385 72.6592 50.6312C73.3595 50.3247 74.039 49.9739 74.6934 49.5812C75.6057 49.0227 76.195 48.4752 75.8211 47.347Z" fill="#FFF"/>
</svg>
