<svg xmlns="http://www.w3.org/2000/svg" width="61" height="64" fill="none">
    <path fill="#fff" fill-rule="evenodd"
        d="M15.367.496C6.88.496 0 7.663 0 16.504v31.453c0 8.84 6.88 16.007 15.367 16.007h30.195c8.487 0 15.367-7.166 15.367-16.007V16.504c0-8.84-6.88-16.008-15.367-16.008H15.367ZM4.853 16.504c0-6.05 4.707-10.953 10.514-10.953h30.195c5.807 0 10.515 4.904 10.515 10.953v31.453c0 6.049-4.708 10.952-10.515 10.952H15.367c-5.807 0-10.514-4.903-10.514-10.952V16.504ZM18.872 32.23c0-6.669 5.19-12.075 11.593-12.075 6.402 0 11.592 5.406 11.592 12.075 0 6.67-5.19 12.076-11.592 12.076-6.403 0-11.593-5.406-11.593-12.076ZM30.465 15.1c-9.083 0-16.446 7.67-16.446 17.13 0 9.462 7.363 17.131 16.446 17.131 9.082 0 16.445-7.67 16.445-17.13 0-9.462-7.363-17.131-16.445-17.131Zm17.254 2.527c1.787 0 3.235-1.509 3.235-3.37 0-1.861-1.448-3.37-3.235-3.37s-3.235 1.509-3.235 3.37c0 1.861 1.448 3.37 3.235 3.37Z"
        clip-rule="evenodd" />
</svg>