<svg xmlns="http://www.w3.org/2000/svg" width="94" height="94" fill="none"><path fill="#000" d="m48.483 43.828.72-4.304-7.241 7.241 2.908 1.953c.485.324.734.896.646 1.454l-.72 4.304 7.242-7.241-2.909-1.953a1.48 1.48 0 0 1-.646-1.454Z"/><path fill="#F8F8F8" d="M91.063 13.219c0-5.67-4.612-10.281-10.282-10.281S70.5 7.548 70.5 13.217c0 2.689 1.058 5.259 2.938 7.183v.426a4.407 4.407 0 0 0-2.938 4.142c0 1.953 1.293 3.613 3.055 4.186a7.237 7.237 0 0 0 3.026 4.773v.015a4.272 4.272 0 0 0-.206 1.307c0 1.91 1.234 3.54 2.938 4.142v9.077H64.624v-7.344H70.5c.808 0 1.469-.66 1.469-1.469V36.72c0-.529-.28-1.014-.75-1.278l-8.063-4.539V23.5c0-.808-.66-1.469-1.468-1.469h-7.344c-.808 0-1.469.661-1.469 1.469v1.616l-5.155-2.894c-.44-.25-1-.25-1.44 0l-23.5 13.219c-.47.264-.749.749-.749 1.278v2.937c0 .808.661 1.469 1.469 1.469h5.875V47H14.687v-7.344c0-.808-.66-1.468-1.468-1.468H5.875v-5.876H19.094c.808 0 1.468-.66 1.468-1.468V23.5h1.47a1.46 1.46 0 0 0 1.424-1.116l1.469-5.875 1.468-5.875 1.47-5.875a1.5 1.5 0 0 0-.265-1.263 1.476 1.476 0 0 0-1.16-.558H8.811c-.675 0-1.263.455-1.424 1.116L5.919 9.929 4.45 15.804l-1.468 5.875a1.5 1.5 0 0 0 .264 1.263c.279.352.705.558 1.16.558h7.344v5.875H4.406c-.808 0-1.468.66-1.468 1.469v8.812c0 .808.66 1.469 1.468 1.469h7.344v7.344c0 .808.66 1.468 1.469 1.468h16.156v7.344h-2.938c-.807 0-1.468.661-1.468 1.469v5.875c0 .808.66 1.469 1.468 1.469h7.344v19.094h-7.608a4.384 4.384 0 0 0-2.673-2.674v-1.733c0-.808-.66-1.469-1.469-1.469h-1.468v-4.406c0-.808-.661-1.469-1.47-1.469a1.467 1.467 0 0 0-1.468 1.47v4.406H8.812v-4.407c0-.808-.66-1.469-1.468-1.469-.808 0-1.469.661-1.469 1.47v4.406H4.406c-.808 0-1.468.66-1.468 1.468v5.875a4.42 4.42 0 0 0 4.406 4.406h11.75c.5 0 .998-.088 1.468-.264a4.07 4.07 0 0 0 1.47.264c1.909 0 3.539-1.233 4.141-2.937h9.077c.808 0 1.469-.66 1.469-1.469V66.094h13.218v11.75c0 .808.661 1.469 1.47 1.469h9.076a4.384 4.384 0 0 0 2.673 2.673v1.733c0 .808.661 1.469 1.469 1.469h4.406v2.937h-2.937c-.808 0-1.469.66-1.469 1.469 0 .808.66 1.469 1.469 1.469H86.656c.808 0 1.469-.661 1.469-1.47 0-.807-.66-1.468-1.469-1.468H83.72v-2.938h4.406c.323 0 .617-.102.852-.279.073-.044.132-.102.19-.161l.045-.044c.059-.074.117-.147.161-.22.044-.074.089-.162.118-.25.073-.162.103-.338.103-.514V70.5c0-.808-.661-1.469-1.469-1.469h-23.5c-.808 0-1.469.661-1.469 1.469v3.202a4.384 4.384 0 0 0-2.673 2.673h-7.608V66.094h14.688c.807 0 1.468-.661 1.468-1.469V58.75c0-.808-.66-1.469-1.469-1.469h-2.937v-5.875h16.156c.808 0 1.469-.66 1.469-1.468V39.392a4.407 4.407 0 0 0 2.938-4.142c0-.455-.074-.896-.206-1.307v-.015a7.237 7.237 0 0 0 3.025-4.773c1.763-.573 3.055-2.233 3.055-4.186 0-1.91-1.233-3.54-2.937-4.142V20.4a10.271 10.271 0 0 0 2.938-7.182ZM17.624 29.375h-2.938V23.5H17.625v5.875Zm4.083-23.5h2.85l-.735 2.938h-2.85l.735-2.938ZM20.24 11.75h2.85l-.735 2.938h-2.849l.734-2.938Zm1.381 5.875-.734 2.938h-2.85l.735-2.938h2.849Zm-5.787-11.75h2.85l-.735 2.938h-2.85l.735-2.938Zm-1.469 5.875h2.85l-.735 2.938H13.63l.734-2.938Zm1.381 5.875-.734 2.938h-2.85l.735-2.938h2.849Zm-6.61 2.938H6.287l.735-2.938H9.87l-.734 2.938Zm1.47-5.875h-2.85l.734-2.938h2.85l-.735 2.938ZM9.223 8.811l.734-2.937h2.85l-.735 2.938h-2.85Zm8.401 77.844c0 .514.088 1.014.264 1.469H7.344c-.808 0-1.469-.66-1.469-1.469V82.25h14.687v.264a4.407 4.407 0 0 0-2.937 4.142Zm4.406 1.469c-.808 0-1.468-.66-1.468-1.469 0-.808.66-1.469 1.468-1.469.808 0 1.469.661 1.469 1.47 0 .807-.66 1.468-1.469 1.468Zm58.75 0H71.97v-2.938h8.812v2.938ZM66.094 71.969h6.785L84.306 82.25H66.094v-.264a4.407 4.407 0 0 0 2.937-4.142c0-1.91-1.234-3.54-2.937-4.142v-1.733Zm-1.469 4.406c.808 0 1.469.66 1.469 1.469 0 .808-.661 1.469-1.469 1.469s-1.469-.661-1.469-1.47c0-.807.661-1.468 1.469-1.468Zm12.176-64.2a1.48 1.48 0 0 1 2.086 0l1.894 1.91 1.895-1.91a1.48 1.48 0 0 1 2.086 0 1.48 1.48 0 0 1 0 2.087l-2.512 2.511v3.79h-2.938v-3.79l-2.511-2.511a1.48 1.48 0 0 1 0-2.086Zm3.98 24.544a1.473 1.473 0 0 1-1.469-1.469c0-.808.661-1.469 1.47-1.469.807 0 1.468.661 1.468 1.469s-.66 1.469-1.469 1.469Zm5.875-10.282h-11.75c-.808 0-1.469-.66-1.469-1.468 0-.808.661-1.469 1.47-1.469H86.655c.808 0 1.469.66 1.469 1.469 0 .808-.66 1.468-1.469 1.468Z"/><path fill="#F8F8F8" d="M11.75 73.438c0 .807.66 1.468 1.469 1.468.5 0 .954-.264 1.219-.646a1.473 1.473 0 0 0-1.219-2.291c-.808 0-1.469.66-1.469 1.469ZM16.333 70.324c.382 0 .749-.147 1.043-.426a1.48 1.48 0 0 0 0-2.086c-1.102-1.101-2.63-1.66-4.157-1.66-1.527 0-3.055.559-4.157 1.66a1.48 1.48 0 0 0 0 2.086 1.48 1.48 0 0 0 2.086 0c.617-.632 1.513-.91 2.365-.808a2.768 2.768 0 0 1 1.777.808c.294.279.676.426 1.043.426Z"/><path fill="#F8F8F8" d="M20.489 66.167c.381 0 .749-.147 1.043-.426.293-.293.425-.66.425-1.043 0-.381-.132-.749-.425-1.042a11.675 11.675 0 0 0-8.314-3.437 11.675 11.675 0 0 0-8.313 3.437 1.48 1.48 0 0 0 0 2.085 1.48 1.48 0 0 0 2.086 0 8.708 8.708 0 0 1 6.227-2.585.5.5 0 0 1 .147.015 8.65 8.65 0 0 1 6.08 2.57c.295.28.662.426 1.044.426Z"/></svg>