<svg xmlns="http://www.w3.org/2000/svg" width="64" height="64" fill="none">
    <path fill="#fff" fill-rule="evenodd"
        d="M7.844 63.964H56.22c3.817 0 6.911-3.157 6.911-7.052V7.548c0-3.894-3.094-7.052-6.91-7.052H7.843C4.027.496.933 3.654.933 7.548v49.364c0 3.895 3.094 7.052 6.91 7.052Zm46.649-8.814h-9.23V39.108c0-4.398-1.638-6.856-5.05-6.856-3.71 0-5.65 2.558-5.65 6.856V55.15h-8.895V24.59h8.895v4.117s2.675-5.05 9.03-5.05c6.352 0 10.9 3.958 10.9 12.145V55.15ZM15.056 20.59c-3.03 0-5.485-2.526-5.485-5.64s2.456-5.639 5.485-5.639c3.03 0 5.484 2.525 5.484 5.64 0 3.113-2.454 5.638-5.484 5.638Zm-4.593 34.56h9.275V24.59h-9.275v30.56Z"
        clip-rule="evenodd" />
</svg>