<svg width="72" height="89" viewBox="0 0 72 89" fill="none" xmlns="http://www.w3.org/2000/svg">
<path d="M58.7588 40.0904V23.0406C58.7588 10.5812 48.6833 0.41687 36.0077 0.41687C23.3321 0.41687 13.2567 10.5812 13.2567 23.0406V40.0904C5.78135 41.7298 0.256104 48.2875 0.256104 56.1566V72.5506C0.256104 81.7313 7.40643 88.9447 16.5068 88.9447H55.5086C64.609 88.9447 71.7593 81.7313 71.7593 72.5506V56.1566C71.7593 48.2875 66.2341 41.7298 58.7588 40.0904ZM51.2834 58.4518L38.2828 71.567C37.6328 72.2228 36.9828 72.5506 36.0077 72.5506C35.0327 72.5506 34.3826 72.2228 33.7326 71.567L27.2323 65.0094C25.9323 63.6979 25.9323 61.7306 27.2323 60.419C28.5324 59.1075 30.4825 59.1075 31.7825 60.419L36.0077 64.6815L46.7332 53.8614C48.0333 52.5499 49.9834 52.5499 51.2834 53.8614C52.5835 55.173 52.5835 57.1402 51.2834 58.4518ZM52.2585 39.7626H19.757V23.0406C19.757 14.1879 26.9073 6.97449 36.0077 6.97449C45.1081 6.97449 52.2585 14.1879 52.2585 23.0406V39.7626Z" fill="#FFF"/>
</svg>
