<svg xmlns="http://www.w3.org/2000/svg" fill="none" viewBox="0 0 150 87">
    <path fill="#fff"
        d="M129.169 55.83c11.137 0 20.831-4.17 20.831-9.322 0-5.152-9.7-9.322-20.831-9.322-11.132 0-20.832 4.17-20.832 9.322 0 5.151 9.694 9.321 20.832 9.321Zm.387-8.322c-1.244-.373-5.062-.69-5.062-2.796 0-1.175 1.394-2.225 3.994-2.461v-.92h1.337v.876c.975.025 2.062.13 3.269.373l-.488 1.423c-.918-.21-1.943-.41-2.95-.41l-.3.006c-2.006.081-2.168 1.187-.781 1.66 2.275.696 5.275 1.211 5.275 3.063 0 1.48-1.806 2.275-4.031 2.467v.908h-1.338v-.864c-1.375-.013-2.818-.236-4.012-.634l.612-1.423c1.019.26 2.294.522 3.45.522l.869-.062c1.544-.211 1.85-1.243.156-1.728Zm-.387 33.178c7.881 0 16.062-2.007 20.831-5.804v2.697c0 5.152-9.7 9.421-20.831 9.421-11.132 0-20.832-4.27-20.832-9.42v-2.698c4.769 3.803 12.944 5.804 20.832 5.804Zm0-20.712c7.881 0 16.062-2.007 20.831-5.804v2.697c0 5.152-9.7 9.321-20.831 9.321-11.132 0-20.832-4.17-20.832-9.321V54.17c4.769 3.797 12.944 5.804 20.832 5.804Zm0 10.36c7.881 0 16.062-2.008 20.831-5.811v2.703c0 5.146-9.7 9.322-20.831 9.322-11.132 0-20.832-4.176-20.832-9.322v-2.703c4.769 3.803 12.944 5.81 20.832 5.81ZM76.412 51.136c0 3.735-2.937 5.73-6.562 6.227v2.293h-2.194v-2.175c-2.262-.037-4.606-.572-6.562-1.578l1-3.574c2.087.802 4.875 1.66 7.05 1.175 2.512-.566 3.031-3.138.256-4.381-2.038-.932-8.269-1.746-8.269-7.047 0-2.964 2.269-5.618 6.525-6.202v-2.318h2.194v2.212c1.581.038 3.363.317 5.344.914l-.794 3.58c-1.681-.585-3.538-1.12-5.344-1.007-3.256.192-3.543 2.995-1.275 4.17 3.744 1.752 8.631 3.05 8.631 7.711ZM112.5 6.214H6.25v62.143H0V0h112.5v6.214Zm-100 6.215v68.357H100V46.508c0-11.136 12.406-16.841 25-17.866V12.429H12.5Zm56.25 55.928c-12.081 0-21.875-9.738-21.875-21.75s9.794-21.75 21.875-21.75 21.875 9.738 21.875 21.75-9.794 21.75-21.875 21.75Z" />
</svg>