<svg width="32" height="32" viewBox="0 0 32 32" fill="none" xmlns="http://www.w3.org/2000/svg">
<path d="M8.8582 13.1806C9.91771 15.1614 11.2256 16.9989 12.7501 18.6488C14.5337 20.5145 16.6253 22.0591 18.9332 23.215C19.0176 23.2526 19.1089 23.2721 19.2013 23.2721C19.2937 23.2721 19.3851 23.2526 19.4695 23.215C19.7528 23.0894 20.0072 22.9069 20.217 22.6788C20.4574 22.4213 20.6826 22.15 20.8913 21.8663C21.8907 20.5581 23.1176 18.9413 24.8563 19.7538L24.962 19.8025L30.7551 23.1338H30.8038C31.1594 23.3895 31.4452 23.7302 31.6354 24.1247C31.8256 24.5192 31.914 24.9551 31.8926 25.3925C31.8637 26.4011 31.5845 27.3867 31.0801 28.2606C30.4386 29.3527 29.4609 30.2078 28.2932 30.6981C27.1981 31.1723 26.0407 31.487 24.8563 31.6325C23.0967 31.8891 21.3018 31.7419 19.6076 31.2019C17.75 30.5755 15.9784 29.7184 14.3345 28.6506L14.1963 28.5613C13.3351 28.025 12.4088 27.4563 11.4988 26.7819C7.86892 24.0397 4.82919 20.5937 2.56133 16.65C0.716956 13.3025 -0.29867 9.68688 0.25383 6.23375C0.482596 4.3952 1.386 2.70711 2.78883 1.49688C3.49647 0.94811 4.30655 0.546141 5.17158 0.314538C6.0366 0.0829348 6.93916 0.0263591 7.82633 0.148128C7.94698 0.157783 8.06342 0.196912 8.16542 0.262078C8.26742 0.327244 8.35186 0.416455 8.41133 0.521878L12.1245 6.8025C12.3732 7.08623 12.5347 7.43578 12.5895 7.80912C12.6442 8.18245 12.59 8.56365 12.4332 8.90688C12.1145 9.56689 11.6232 10.1284 11.0113 10.5319C10.8163 10.7025 10.5807 10.8731 10.3288 11.0519C9.51633 11.6531 8.54945 12.3519 8.87445 13.1725L8.8582 13.1806Z" fill="white"/>
</svg>
