<svg width="72" height="21" viewBox="0 0 72 21" fill="none" xmlns="http://www.w3.org/2000/svg">
<g clip-path="url(#clip0_115_575)">
<path d="M27.927 1.15306C27.1985 0.755618 26.3891 0.554443 25.4987 0.554443C24.601 0.554443 23.7891 0.753164 23.0631 1.15306C22.3395 1.55295 21.7655 2.10005 21.3461 2.79925C20.9267 3.49846 20.7157 4.27617 20.7157 5.13239C20.7157 5.14465 20.7157 5.15937 20.7157 5.17164V5.18636C20.7157 5.39735 20.7329 5.60343 20.7599 5.80706C20.8236 8.82222 18.312 11.3197 15.2361 11.1627C14.3384 11.1627 13.5265 11.3614 12.8005 11.7613C12.0769 12.1588 11.5029 12.7083 11.0835 13.4075C10.6641 14.1067 10.4531 14.8844 10.4531 15.7407C10.4531 16.5969 10.6641 17.3868 11.0835 18.0861C11.5029 18.7853 12.0769 19.3373 12.8054 19.7396C13.5339 20.142 14.3433 20.3431 15.2337 20.3431C16.124 20.3431 16.9335 20.142 17.662 19.7396C18.3904 19.3373 18.9644 18.7828 19.3838 18.0787C19.8033 17.3746 20.0142 16.5944 20.0142 15.7382C20.0142 15.7259 20.0142 15.7112 20.0142 15.6989V15.6744C20.0118 15.4757 19.9995 15.2794 19.9725 15.0881C19.7836 12.1612 22.1212 9.68089 25.0597 9.71524C25.2019 9.72505 25.3466 9.73486 25.4913 9.73486C26.3817 9.73486 27.1912 9.53369 27.9196 9.13134C28.6481 8.72899 29.2221 8.17454 29.6415 7.47043C30.0609 6.76631 30.2719 5.98615 30.2719 5.12993C30.2719 4.27372 30.0609 3.496 29.6415 2.7968C29.2221 2.0976 28.6481 1.54805 27.9196 1.15061L27.927 1.15306ZM17.787 16.9771C17.532 17.5022 17.1371 17.9119 16.6661 18.1842C16.6489 18.194 16.6342 18.2063 16.6171 18.2161C16.205 18.4663 15.7537 18.5914 15.2631 18.5914C14.829 18.5914 14.4218 18.4909 14.044 18.2921C14.0367 18.2897 14.0318 18.2872 14.0244 18.2848C12.6239 17.6076 12.0401 15.9222 12.7171 14.5238C13.0237 13.8908 13.5363 13.4247 14.1373 13.1671C14.4905 13.0027 14.8657 12.9193 15.2631 12.9193C15.6997 12.9193 16.102 13.0174 16.4748 13.2137C16.4748 13.2137 16.4748 13.2137 16.4772 13.2137C17.8778 13.8908 18.4616 15.5763 17.7846 16.9747L17.787 16.9771ZM28.0251 6.34925C27.8779 6.65346 27.6817 6.91597 27.4536 7.13677C27.2844 7.31832 27.093 7.47778 26.8772 7.60781C26.4651 7.85805 26.0138 7.98317 25.5232 7.98317C25.0327 7.98317 24.5764 7.8556 24.157 7.60045C24.1423 7.59064 24.13 7.58328 24.1153 7.57347C22.8251 6.84973 22.3051 5.24279 22.9576 3.89345C23.5168 2.73547 24.7653 2.13685 25.9721 2.34784C26.0285 2.35765 26.0849 2.36747 26.1389 2.38219C26.161 2.38709 26.183 2.392 26.2051 2.39936C26.2713 2.41653 26.34 2.43861 26.4038 2.46069C26.5093 2.49749 26.6147 2.53675 26.7153 2.58827C28.1159 3.26539 28.6996 4.95084 28.0227 6.34925H28.0251Z" fill="white"/>
<path d="M40.057 17.7966C40.4544 17.068 40.6555 16.2584 40.6555 15.3678C40.6555 14.4699 40.4568 13.6578 40.057 12.9316C39.6572 12.2079 39.1102 11.6338 38.4112 11.2143C37.7121 10.7948 36.9346 10.5838 36.0786 10.5838C36.0663 10.5838 36.0516 10.5838 36.0393 10.5838H36.0246C35.8137 10.5838 35.6076 10.6009 35.404 10.6279C32.3895 10.6917 29.8926 8.17949 30.0495 5.10299C30.0495 4.20507 29.8509 3.39301 29.451 2.66682C29.0537 1.94308 28.5043 1.369 27.8052 0.94948C27.1062 0.529957 26.3286 0.31897 25.4726 0.31897C24.6165 0.31897 23.8267 0.529957 23.1277 0.94948C22.4286 1.369 21.8768 1.94308 21.4745 2.67173C21.0722 3.40037 20.8711 4.20998 20.8711 5.10054C20.8711 5.99111 21.0722 6.80071 21.4745 7.52935C21.8768 8.258 22.4311 8.83208 23.135 9.2516C23.839 9.67112 24.619 9.88211 25.475 9.88211C25.4873 9.88211 25.502 9.88211 25.5143 9.88211H25.5413C25.7399 9.87966 25.9362 9.86739 26.1275 9.8404C29.0537 9.6515 31.5335 11.9895 31.4992 14.9286C31.4893 15.0709 31.4795 15.2157 31.4795 15.3604C31.4795 16.251 31.6807 17.0606 32.0829 17.7892C32.4852 18.5179 33.0395 19.092 33.7435 19.5115C34.4474 19.931 35.2274 20.142 36.0835 20.142C36.9395 20.142 37.717 19.931 38.4161 19.5115C39.1151 19.092 39.6646 18.5179 40.0619 17.7892L40.057 17.7966ZM24.2364 7.65447C23.7115 7.39933 23.3018 7.00434 23.0296 6.53329C23.0198 6.51612 23.0075 6.5014 22.9977 6.48423C22.7475 6.07207 22.6224 5.62065 22.6224 5.12998C22.6224 4.69574 22.723 4.28848 22.9216 3.91067C22.9241 3.90331 22.9266 3.8984 22.929 3.89104C23.606 2.49018 25.2911 1.90628 26.6892 2.58341C27.322 2.89008 27.788 3.40282 28.0456 4.00389C28.2099 4.35718 28.2933 4.73254 28.2933 5.12998C28.2933 5.56668 28.1952 5.96902 27.999 6.34193C27.999 6.34193 27.999 6.34193 27.999 6.34439C27.322 7.74525 25.6369 8.32914 24.2388 7.65202L24.2364 7.65447ZM34.862 17.8947C34.5578 17.7475 34.2954 17.5513 34.0746 17.3231C33.8931 17.1538 33.7337 16.9625 33.6037 16.7466C33.3535 16.3344 33.2284 15.883 33.2284 15.3923C33.2284 14.9017 33.3559 14.4453 33.611 14.0258C33.6208 14.0111 33.6282 13.9988 33.638 13.9841C34.3616 12.6936 35.9682 12.1735 37.3172 12.8261C38.475 13.3855 39.0735 14.6342 38.8625 15.8413C38.8527 15.8977 38.8429 15.9541 38.8282 16.0081C38.8233 16.0302 38.8184 16.0523 38.811 16.0744C38.7938 16.1406 38.7718 16.2093 38.7497 16.2731C38.7129 16.3786 38.6736 16.4841 38.6221 16.5847C37.9452 17.9855 36.2601 18.5694 34.862 17.8923V17.8947Z" fill="white"/>
<path d="M60.8988 17.4727C61.2962 16.7441 61.4973 15.9345 61.4973 15.0439C61.4973 14.146 61.2986 13.334 60.8988 12.6078C60.499 11.884 59.952 11.3099 59.253 10.8904C58.5539 10.4709 57.7764 10.2599 56.9204 10.2599C56.9081 10.2599 56.8934 10.2599 56.8811 10.2599H56.8664C56.6555 10.2599 56.4494 10.2771 56.2458 10.3041C53.2313 10.3679 50.7344 7.85564 50.8913 4.77914C50.8913 3.88122 50.6927 3.06916 50.2928 2.34297C49.8955 1.61923 49.3461 1.04515 48.647 0.625627C47.948 0.206105 47.1704 -0.00488281 46.3144 -0.00488281C45.4583 -0.00488281 44.6685 0.206105 43.9695 0.625627C43.2704 1.04515 42.7185 1.61923 42.3163 2.34788C41.914 3.07652 41.7129 3.88612 41.7129 4.77669C41.7129 5.66725 41.914 6.47686 42.3163 7.2055C42.7185 7.93414 43.2729 8.50823 43.9768 8.92775C44.6808 9.34727 45.4608 9.55826 46.3168 9.55826C46.3291 9.55826 46.3438 9.55826 46.3561 9.55826H46.3831C46.5817 9.5558 46.778 9.54354 46.9693 9.51655C49.8955 9.32764 52.3753 11.6657 52.3409 14.6048C52.3311 14.7471 52.3213 14.8918 52.3213 15.0366C52.3213 15.9271 52.5225 16.7367 52.9247 17.4654C53.327 18.194 53.8813 18.7681 54.5853 19.1876C55.2892 19.6072 56.0692 19.8181 56.9253 19.8181C57.7813 19.8181 58.5588 19.6072 59.2579 19.1876C59.9569 18.7681 60.5064 18.194 60.9037 17.4654L60.8988 17.4727ZM45.0782 7.33062C44.5533 7.07547 44.1436 6.68048 43.8714 6.20944C43.8616 6.19227 43.8493 6.17755 43.8395 6.16037C43.5893 5.74821 43.4642 5.2968 43.4642 4.80613C43.4642 4.37189 43.5648 3.96463 43.7634 3.58682C43.7659 3.57946 43.7684 3.57455 43.7708 3.56719C44.4478 2.16633 46.1329 1.58243 47.531 2.25956C48.1638 2.56622 48.6298 3.07897 48.8874 3.68004C49.0517 4.03332 49.1351 4.40869 49.1351 4.80613C49.1351 5.24282 49.037 5.64517 48.8408 6.01808C48.8408 6.01808 48.8408 6.01808 48.8408 6.02053C48.1638 7.42139 46.4787 8.00529 45.0806 7.32817L45.0782 7.33062ZM55.7038 17.5709C55.3996 17.4237 55.1372 17.2274 54.9164 16.9993C54.7349 16.83 54.5755 16.6386 54.4455 16.4227C54.1953 16.0106 54.0702 15.5591 54.0702 15.0685C54.0702 14.5778 54.1977 14.1215 54.4528 13.702C54.4626 13.6872 54.47 13.675 54.4798 13.6603C55.2034 12.3698 56.81 11.8497 58.159 12.5023C59.3168 13.0616 59.9152 14.3104 59.7043 15.5174C59.6945 15.5739 59.6847 15.6303 59.67 15.6843C59.6651 15.7063 59.6602 15.7284 59.6528 15.7505C59.6356 15.8167 59.6136 15.8854 59.5915 15.9492C59.5547 16.0547 59.5154 16.1602 59.4639 16.2608C58.7869 17.6617 57.1019 18.2456 55.7038 17.5684V17.5709Z" fill="white"/>
<path d="M19.1908 18.2063C19.5882 17.4776 19.7893 16.668 19.7893 15.7775C19.7893 14.8795 19.5907 14.0675 19.1908 13.3413C18.791 12.6175 18.2441 12.0435 17.545 11.6239C16.8459 11.2044 16.0684 10.9934 15.2124 10.9934C15.2001 10.9934 15.1854 10.9934 15.1731 10.9934H15.1584C14.9475 10.9934 14.7414 11.0106 14.5378 11.0376C11.5233 11.1014 9.02637 8.58916 9.18335 5.51266C9.18335 4.61474 8.98467 3.80268 8.58486 3.07649C8.1875 2.35275 7.63807 1.77867 6.93902 1.35915C6.23997 0.939625 5.46242 0.728638 4.60639 0.728638C3.75036 0.728638 2.96055 0.939625 2.2615 1.35915C1.56244 1.77867 1.01056 2.35275 0.608299 3.0814C0.201131 3.81495 0 4.62455 0 5.51511C0 6.40568 0.201131 7.21528 0.603393 7.94393C1.00566 8.67257 1.55999 9.24665 2.26395 9.66618C2.96791 10.0857 3.7479 10.2967 4.60394 10.2967C4.6162 10.2967 4.63092 10.2967 4.64318 10.2967H4.67016C4.86884 10.2942 5.06507 10.282 5.25639 10.255C8.1826 10.0661 10.6624 12.4041 10.6281 15.3432C10.6182 15.4855 10.6084 15.6303 10.6084 15.775C10.6084 16.6656 10.8096 17.4752 11.2118 18.2038C11.6141 18.9325 12.1684 19.5065 12.8724 19.9261C13.5763 20.3456 14.3563 20.5566 15.2124 20.5566C16.0684 20.5566 16.8459 20.3456 17.545 19.9261C18.2441 19.5065 18.7935 18.9325 19.1908 18.2038V18.2063ZM3.37017 8.06414C2.84527 7.80899 2.43565 7.414 2.16338 6.94296C2.15357 6.92579 2.14131 6.91107 2.1315 6.8939C1.88131 6.48173 1.75622 6.03032 1.75622 5.53965C1.75622 5.10541 1.85678 4.69815 2.05546 4.32034C2.05791 4.31298 2.06037 4.30807 2.06282 4.30071C2.7398 2.89985 4.42488 2.31595 5.82299 2.99308C6.45581 3.29974 6.92185 3.81249 7.1794 4.41356C7.34374 4.76684 7.42713 5.14221 7.42713 5.53965C7.42713 5.97634 7.32902 6.37869 7.13279 6.7516C7.13279 6.7516 7.13279 6.7516 7.13279 6.75405C6.45581 8.15491 4.77073 8.73881 3.37262 8.06169L3.37017 8.06414ZM13.9958 18.3044C13.6916 18.1572 13.4292 17.9609 13.2084 17.7328C13.0269 17.5635 12.8675 17.3721 12.7375 17.1562C12.4873 16.7441 12.3622 16.2927 12.3622 15.802C12.3622 15.3113 12.4897 14.855 12.7448 14.4355C12.7546 14.4208 12.762 14.4085 12.7718 14.3938C13.4954 13.1033 15.102 12.5832 16.451 13.2358C17.6088 13.7952 18.2073 15.0439 17.9963 16.251C17.9865 16.3074 17.9767 16.3638 17.962 16.4178C17.9571 16.4399 17.9522 16.4619 17.9448 16.484C17.9276 16.5503 17.9056 16.619 17.8835 16.6827C17.8467 16.7882 17.8075 16.8937 17.7559 16.9943C17.079 18.3952 15.3939 18.9791 13.9958 18.302V18.3044Z" fill="white"/>
<path d="M48.7727 0.760482C48.0442 0.36304 47.2348 0.161865 46.3444 0.161865C45.4467 0.161865 44.6348 0.360586 43.9088 0.760482C43.1852 1.16038 42.6112 1.70747 42.1918 2.40668C41.7724 3.10588 41.5614 3.88359 41.5614 4.73981C41.5614 4.75207 41.5614 4.7668 41.5614 4.77906V4.79378C41.5614 5.00477 41.5786 5.21085 41.6056 5.41448C41.6693 8.42964 39.1577 10.9271 36.0818 10.7701C35.1841 10.7701 34.3722 10.9689 33.6462 11.3687C32.9226 11.7662 32.3486 12.3157 31.9292 13.0149C31.5098 13.7141 31.2988 14.4919 31.2988 15.3481C31.2988 16.2043 31.5098 16.9943 31.9292 17.6935C32.3486 18.3927 32.9226 18.9447 33.6511 19.347C34.3796 19.7494 35.189 19.9506 36.0794 19.9506C36.9697 19.9506 37.7792 19.7494 38.5077 19.347C39.2361 18.9447 39.8101 18.3902 40.2295 17.6861C40.649 16.982 40.8599 16.2018 40.8599 15.3456C40.8599 15.3334 40.8599 15.3186 40.8599 15.3064V15.2818C40.8575 15.0831 40.8452 14.8868 40.8182 14.6955C40.6293 11.7686 42.9669 9.28831 45.9054 9.32266C46.0476 9.33247 46.1923 9.34229 46.3371 9.34229C47.2274 9.34229 48.0369 9.14111 48.7653 8.73876C49.4938 8.33641 50.0678 7.78196 50.4872 7.07785C50.9067 6.37374 51.1176 5.59357 51.1176 4.73735C51.1176 3.88114 50.9067 3.10343 50.4872 2.40422C50.0678 1.70502 49.4938 1.15547 48.7653 0.758028L48.7727 0.760482ZM38.6328 16.5846C38.3777 17.1096 37.9828 17.5193 37.5118 17.7916C37.4946 17.8014 37.4799 17.8137 37.4628 17.8235C37.0507 18.0737 36.5994 18.1989 36.1088 18.1989C35.6747 18.1989 35.2675 18.0983 34.8898 17.8996C34.8824 17.8971 34.8775 17.8946 34.8701 17.8922C33.4696 17.2151 32.8858 15.5296 33.5628 14.1312C33.8694 13.4983 34.382 13.0321 34.983 12.7745C35.3362 12.6101 35.7114 12.5267 36.1088 12.5267C36.5454 12.5267 36.9477 12.6249 37.3205 12.8211C37.3205 12.8211 37.3205 12.8211 37.3229 12.8211C38.7235 13.4983 39.3073 15.1837 38.6303 16.5821L38.6328 16.5846ZM48.8708 5.95667C48.7236 6.26088 48.5274 6.52339 48.2993 6.74419C48.1301 6.92574 47.9387 7.08521 47.7229 7.21523C47.3108 7.46548 46.8595 7.5906 46.3689 7.5906C45.8784 7.5906 45.4222 7.46302 45.0027 7.20787C44.988 7.19806 44.9757 7.1907 44.961 7.18089C43.6708 6.45715 43.1508 4.85021 43.8033 3.50087C44.3625 2.34289 45.611 1.74427 46.8178 1.95526C46.8742 1.96507 46.9306 1.97489 46.9846 1.98961C47.0067 1.99451 47.0287 1.99942 47.0508 2.00678C47.1171 2.02395 47.1857 2.04603 47.2495 2.06811C47.355 2.10492 47.4604 2.14417 47.561 2.19569C48.9616 2.87281 49.5453 4.55826 48.8684 5.95667H48.8708Z" fill="white"/>
<path d="M69.6477 0.613387C68.9192 0.215945 68.1098 0.0147705 67.2194 0.0147705C66.3217 0.0147705 65.5098 0.213491 64.7838 0.613387C64.0602 1.01328 63.4862 1.56038 63.0668 2.25958C62.6474 2.95878 62.4364 3.7365 62.4364 4.59271C62.4364 4.60498 62.4364 4.6197 62.4364 4.63197V4.64669C62.4364 4.85767 62.4536 5.06376 62.4806 5.26738C62.5443 8.28254 60.0327 10.78 56.9568 10.623C56.0591 10.623 55.2472 10.8218 54.5212 11.2217C53.7976 11.6191 53.2236 12.1686 52.8042 12.8678C52.3848 13.567 52.1738 14.3448 52.1738 15.201C52.1738 16.0572 52.3848 16.8472 52.8042 17.5464C53.2236 18.2456 53.7976 18.7976 54.5261 19.1999C55.2546 19.6023 56.064 19.8035 56.9544 19.8035C57.8447 19.8035 58.6542 19.6023 59.3827 19.1999C60.1111 18.7976 60.6851 18.2431 61.1045 17.539C61.524 16.8349 61.7349 16.0547 61.7349 15.1985C61.7349 15.1863 61.7349 15.1715 61.7349 15.1593V15.1347C61.7325 14.936 61.7202 14.7397 61.6932 14.5484C61.5043 11.6215 63.8419 9.14122 66.7804 9.17556C66.9226 9.18538 67.0673 9.19519 67.212 9.19519C68.1024 9.19519 68.9119 8.99401 69.6403 8.59167C70.3688 8.18932 70.9428 7.63486 71.3622 6.93075C71.7816 6.22664 71.9926 5.44648 71.9926 4.59026C71.9926 3.73404 71.7816 2.95633 71.3622 2.25713C70.9428 1.55792 70.3688 1.00838 69.6403 0.610933L69.6477 0.613387ZM59.5078 16.4375C59.2527 16.9625 58.8578 17.3722 58.3868 17.6445C58.3696 17.6543 58.3549 17.6666 58.3378 17.6764C57.9257 17.9266 57.4744 18.0518 56.9838 18.0518C56.5497 18.0518 56.1425 17.9512 55.7648 17.7525C55.7574 17.75 55.7525 17.7476 55.7451 17.7451C54.3446 17.068 53.7608 15.3825 54.4378 13.9841C54.7444 13.3512 55.257 12.885 55.858 12.6274C56.2112 12.463 56.5864 12.3796 56.9838 12.3796C57.4204 12.3796 57.8227 12.4778 58.1955 12.674C58.1955 12.674 58.1955 12.674 58.1979 12.674C59.5985 13.3512 60.1823 15.0366 59.5053 16.435L59.5078 16.4375ZM69.7458 5.80957C69.5986 6.11379 69.4024 6.3763 69.1743 6.5971C69.0051 6.77864 68.8137 6.93811 68.5979 7.06814C68.1858 7.31838 67.7345 7.4435 67.2439 7.4435C66.7534 7.4435 66.2971 7.31593 65.8777 7.06078C65.863 7.05097 65.8507 7.04361 65.836 7.03379C64.5458 6.31005 64.0258 4.70311 64.6783 3.35377C65.2375 2.19579 66.486 1.59718 67.6928 1.80817C67.7492 1.81798 67.8056 1.82779 67.8596 1.84251C67.8817 1.84742 67.9037 1.85233 67.9258 1.85969C67.992 1.87686 68.0607 1.89894 68.1245 1.92102C68.23 1.95782 68.3354 1.99707 68.436 2.04859C69.8366 2.72572 70.4203 4.41117 69.7434 5.80957H69.7458Z" fill="white"/>
</g>
<defs>
<clipPath id="clip0_115_575">
<rect width="72" height="20.559" fill="white"/>
</clipPath>
</defs>
</svg>
