<svg xmlns="http://www.w3.org/2000/svg" width="72" height="21" fill="none">
    <g fill="#003EF9" clip-path="url(#a)">
        <path
            d="M27.93 1.15c-.73-.4-1.54-.6-2.43-.6-.9 0-1.71.2-2.44.6a4.5 4.5 0 0 0-2.34 3.98v.06a5.26 5.26 0 0 1-5.48 5.98c-.9 0-1.71.2-2.44.6a4.48 4.48 0 0 0-2.35 3.97 4.5 4.5 0 0 0 2.36 4c.72.4 1.53.6 2.42.6.9 0 1.7-.2 2.43-.6a4.5 4.5 0 0 0 2.35-4v-.07c0-.2-.01-.4-.04-.58a5.04 5.04 0 0 1 5.52-5.36c.9 0 1.7-.2 2.43-.6a4.5 4.5 0 0 0 2.35-4 4.45 4.45 0 0 0-2.35-3.98ZM17.79 16.98a2.8 2.8 0 0 1-1.12 1.2l-.05.04c-.41.25-.87.37-1.36.37-.43 0-.84-.1-1.22-.3h-.01a2.82 2.82 0 0 1 .1-5.12 2.64 2.64 0 0 1 2.35.04 2.82 2.82 0 0 1 1.3 3.76ZM28.03 6.35c-.15.3-.35.57-.58.79a2.67 2.67 0 0 1-1.93.84c-.49 0-.94-.12-1.36-.38-.02 0-.03-.02-.04-.03a2.81 2.81 0 0 1 1.85-5.22c.06 0 .12.02.17.03l.07.02a2.65 2.65 0 0 1 .5.19 2.82 2.82 0 0 1 1.31 3.76Z" />
        <path
            d="M40.06 17.8c.4-.73.6-1.54.6-2.43 0-.9-.2-1.71-.6-2.44a4.5 4.5 0 0 0-3.98-2.35h-.06a5.26 5.26 0 0 1-5.98-5.48c0-.9-.19-1.7-.59-2.43A4.48 4.48 0 0 0 25.47.32a4.49 4.49 0 0 0-4 2.35c-.4.73-.6 1.54-.6 2.43 0 .9.2 1.7.6 2.43a4.5 4.5 0 0 0 4 2.35h.07c.2 0 .4-.01.59-.04a5.04 5.04 0 0 1 5.35 5.52c0 .9.2 1.7.6 2.43a4.5 4.5 0 0 0 4 2.35 4.45 4.45 0 0 0 3.98-2.35ZM24.24 7.65a2.8 2.8 0 0 1-1.21-1.12L23 6.48a2.59 2.59 0 0 1-.08-2.57V3.9a2.81 2.81 0 0 1 5.13.11A2.64 2.64 0 0 1 28 6.34a2.81 2.81 0 0 1-3.76 1.31ZM34.86 17.9c-.3-.14-.56-.34-.79-.57a2.68 2.68 0 0 1-.84-1.93c0-.49.13-.94.38-1.36l.03-.05a2.81 2.81 0 0 1 5.22 1.86c0 .06-.02.11-.03.17l-.02.06a2.68 2.68 0 0 1-.19.51 2.81 2.81 0 0 1-3.76 1.31ZM60.9 17.47a5 5 0 0 0 .6-2.43c0-.9-.2-1.7-.6-2.43a4.5 4.5 0 0 0-3.98-2.35h-.05a5.26 5.26 0 0 1-5.98-5.48c0-.9-.2-1.71-.6-2.44A4.48 4.48 0 0 0 46.31 0a4.5 4.5 0 0 0-4 2.35c-.4.73-.6 1.54-.6 2.43 0 .89.2 1.7.6 2.43a4.5 4.5 0 0 0 4 2.35h.07c.2 0 .4-.02.59-.04a5.04 5.04 0 0 1 5.35 5.52c0 .89.2 1.7.6 2.43a4.5 4.5 0 0 0 4 2.35 4.45 4.45 0 0 0 3.98-2.35ZM45.08 7.33a2.8 2.8 0 0 1-1.2-1.12l-.04-.05a2.56 2.56 0 0 1-.38-1.35c0-.44.1-.85.3-1.22l.01-.02a2.81 2.81 0 0 1 5.12.11 2.64 2.64 0 0 1-.05 2.34 2.81 2.81 0 0 1-3.76 1.3v.01ZM55.7 17.57c-.3-.15-.56-.34-.78-.57a2.68 2.68 0 0 1-.85-1.93c0-.5.13-.95.38-1.37l.03-.04a2.81 2.81 0 0 1 5.19 2.02l-.02.07a2.63 2.63 0 0 1-.19.51 2.81 2.81 0 0 1-3.76 1.3v.01ZM19.2 18.2a5 5 0 0 0 .59-2.42c0-.9-.2-1.71-.6-2.44A4.5 4.5 0 0 0 15.21 11h-.05a5.26 5.26 0 0 1-5.98-5.48c0-.9-.2-1.7-.6-2.43A4.48 4.48 0 0 0 4.61.73a4.5 4.5 0 0 0-4 2.35C.2 3.81 0 4.62 0 5.52c0 .89.2 1.7.6 2.42a4.5 4.5 0 0 0 4 2.36h.07c.2 0 .4-.02.59-.04a5.04 5.04 0 0 1 5.35 5.52c0 .89.2 1.7.6 2.42a4.5 4.5 0 0 0 4 2.36 4.45 4.45 0 0 0 3.98-2.36ZM3.36 8.07a2.8 2.8 0 0 1-1.2-1.12l-.04-.05a2.56 2.56 0 0 1-.37-1.35c0-.43.1-.84.3-1.22V4.3a2.81 2.81 0 0 1 5.12.11 2.64 2.64 0 0 1-.05 2.34 2.81 2.81 0 0 1-3.76 1.31ZM14 18.3c-.3-.14-.57-.34-.8-.57a2.68 2.68 0 0 1-.84-1.93c0-.49.13-.95.38-1.36l.03-.05A2.81 2.81 0 0 1 18 16.25l-.04.17c0 .02 0 .04-.02.06a2.65 2.65 0 0 1-.18.51A2.81 2.81 0 0 1 14 18.3Z" />
        <path
            d="M48.77.76c-.73-.4-1.54-.6-2.43-.6-.9 0-1.7.2-2.43.6a4.5 4.5 0 0 0-2.35 3.98v.05a5.26 5.26 0 0 1-5.48 5.98c-.9 0-1.7.2-2.43.6a4.48 4.48 0 0 0-2.35 3.98 4.5 4.5 0 0 0 2.35 4c.73.4 1.54.6 2.43.6.89 0 1.7-.2 2.43-.6a4.5 4.5 0 0 0 2.35-4v-.07c0-.2-.02-.4-.04-.58a5.04 5.04 0 0 1 5.52-5.36c.89 0 1.7-.2 2.42-.6a4.5 4.5 0 0 0 2.36-4A4.45 4.45 0 0 0 48.76.76h.01ZM38.63 16.58a2.8 2.8 0 0 1-1.12 1.21l-.05.03a2.58 2.58 0 0 1-2.57.08h-.02a2.82 2.82 0 0 1 .11-5.13 2.64 2.64 0 0 1 2.34.05 2.82 2.82 0 0 1 1.3 3.76h.01ZM48.87 5.96c-.15.3-.34.56-.57.78a2.67 2.67 0 0 1-1.93.85c-.5 0-.95-.13-1.37-.38l-.04-.03a2.81 2.81 0 0 1 1.86-5.22c.05 0 .11.01.16.03.03 0 .05 0 .07.02a2.64 2.64 0 0 1 .51.19 2.82 2.82 0 0 1 1.3 3.76h.01ZM69.65.61c-.73-.4-1.54-.6-2.43-.6-.9 0-1.71.2-2.44.6a4.5 4.5 0 0 0-2.34 3.98v.06a5.26 5.26 0 0 1-5.48 5.98c-.9 0-1.71.2-2.44.6a4.48 4.48 0 0 0-2.35 3.97 4.5 4.5 0 0 0 2.36 4c.72.4 1.53.6 2.42.6.9 0 1.7-.2 2.43-.6a4.5 4.5 0 0 0 2.35-4v-.07c0-.2-.01-.39-.04-.58a5.04 5.04 0 0 1 5.52-5.35c.9 0 1.7-.2 2.43-.6a4.5 4.5 0 0 0 2.35-4.01A4.45 4.45 0 0 0 69.64.61ZM59.5 16.44a2.8 2.8 0 0 1-1.12 1.2l-.05.04c-.41.25-.87.37-1.36.37-.43 0-.84-.1-1.22-.3h-.01a2.82 2.82 0 0 1 .1-5.12 2.64 2.64 0 0 1 2.35.04 2.82 2.82 0 0 1 1.3 3.76ZM69.75 5.8c-.15.3-.35.57-.58.79a2.68 2.68 0 0 1-1.93.84c-.49 0-.94-.12-1.36-.38-.02 0-.03-.02-.04-.03a2.81 2.81 0 1 1 3.9-1.22Z" />
    </g>
    <defs>
        <clipPath id="a">
            <path fill="#fff" d="M0 0h72v20.56H0z" />
        </clipPath>
    </defs>
</svg>