<svg xmlns="http://www.w3.org/2000/svg" fill="none" viewBox="0 0 925 891">
    <g filter="url(#a)">
        <path fill="#001FFF"
            d="M56 104v491.889a70.999 70.999 0 0 0 39.948 63.849l266.4 129.556a229 229 0 0 0 200.304 0l266.4-129.556A71 71 0 0 0 869 595.889V104c0-39.212-31.788-71-71-71H127c-39.212 0-71 31.788-71 71Z" />
        <path stroke="#FBFBFB" stroke-width="38"
            d="M56 104v491.889a70.999 70.999 0 0 0 39.948 63.849l266.4 129.556a229 229 0 0 0 200.304 0l266.4-129.556A71 71 0 0 0 869 595.889V104c0-39.212-31.788-71-71-71H127c-39.212 0-71 31.788-71 71Z" />
    </g>
    <rect width="813" height="252" x="56" y="33" fill="#FBFBFB" rx="57" />
    <path fill="#FBFBFB" d="M767 226h102v59H767z" />
    <path fill="#003EF9"
        d="m270.734 148-7.626-15.498h-9.02V148h-17.056V90.518h26.814c7.708 0 13.667 1.777 17.876 5.33 4.264 3.553 6.396 8.583 6.396 15.088 0 4.209-.847 7.872-2.542 10.988-1.64 3.061-4.018 5.494-7.134 7.298L290.086 148h-19.352Zm-16.646-28.618h9.758c2.569 0 4.537-.683 5.904-2.05 1.421-1.367 2.132-3.335 2.132-5.904 0-2.515-.711-4.428-2.132-5.74-1.367-1.367-3.335-2.05-5.904-2.05h-9.758v15.744Zm48.922-28.864h46.986v13.12h-29.93v9.02h27.142v13.12h-27.142v9.102h30.75V148H303.01V90.518Zm57.451 0h18.204l13.12 39.77 13.12-39.77h17.466L400.149 148h-17.712l-21.976-57.482Zm72.983 0h46.986v13.12H450.5v9.02h27.142v13.12H450.5v9.102h30.75V148h-47.806V90.518Zm101.485 0h15.58V148h-14.514l-24.354-31.98V148h-15.662V90.518h14.596l24.354 32.062V90.518Zm57.007 0c6.122 0 11.507 1.203 16.154 3.608 4.701 2.35 8.336 5.713 10.906 10.086 2.569 4.319 3.854 9.321 3.854 15.006 0 5.685-1.312 10.715-3.936 15.088-2.624 4.373-6.314 7.763-11.07 10.168-4.756 2.351-10.25 3.526-16.482 3.526h-24.6V90.518h25.174Zm.492 44.116c3.881 0 7.024-1.394 9.43-4.182 2.405-2.788 3.608-6.478 3.608-11.07 0-4.592-1.285-8.309-3.854-11.152-2.57-2.843-5.904-4.264-10.004-4.264h-7.79v30.668h8.61ZM676.247 148l-3.362-9.184h-23.206L646.235 148h-17.548l24.518-57.482h17.548L694.451 148h-18.204Zm-21.812-21.648h13.94l-6.888-18.778-7.052 18.778ZM195.346 230l-3.362-9.184h-23.206L165.334 230h-17.548l24.518-57.482h17.548L213.55 230h-18.204Zm-21.812-21.648h13.94l-6.888-18.778-7.052 18.778Zm65.321-2.132c0 3.225.93 5.822 2.788 7.79 1.859 1.968 4.182 2.952 6.97 2.952 2.734 0 4.975-.957 6.724-2.87 1.75-1.968 2.624-4.592 2.624-7.872v-33.702h17.056v33.702c0 5.029-1.093 9.43-3.28 13.202-2.132 3.717-5.193 6.615-9.184 8.692-3.99 2.023-8.637 3.034-13.94 3.034-5.357 0-10.058-1.011-14.104-3.034-4.045-2.077-7.188-4.975-9.43-8.692-2.186-3.772-3.28-8.173-3.28-13.202v-33.702h17.056v33.702Zm47.16-33.702h50.512v13.612h-16.728V230h-17.138v-43.87h-16.646v-13.612Zm87.717-1.066c5.904 0 11.234 1.285 15.99 3.854 4.811 2.569 8.556 6.123 11.234 10.66 2.734 4.483 4.1 9.539 4.1 15.17 0 5.685-1.366 10.824-4.1 15.416-2.678 4.537-6.423 8.118-11.234 10.742-4.756 2.569-10.086 3.854-15.99 3.854-5.958 0-11.316-1.285-16.072-3.854-4.756-2.624-8.5-6.205-11.234-10.742-2.678-4.592-4.018-9.731-4.018-15.416 0-5.631 1.34-10.687 4.018-15.17 2.734-4.537 6.478-8.091 11.234-10.66 4.756-2.569 10.114-3.854 16.072-3.854Zm.246 14.186c-2.514 0-4.865.683-7.052 2.05-2.132 1.367-3.854 3.253-5.166 5.658-1.257 2.351-1.886 4.975-1.886 7.872 0 2.897.629 5.549 1.886 7.954 1.312 2.405 3.034 4.319 5.166 5.74 2.187 1.367 4.538 2.05 7.052 2.05 2.46 0 4.729-.683 6.806-2.05 2.132-1.421 3.8-3.307 5.002-5.658 1.203-2.405 1.804-5.084 1.804-8.036 0-2.897-.601-5.521-1.804-7.872-1.202-2.405-2.842-4.291-4.92-5.658-2.077-1.367-4.373-2.05-6.888-2.05ZM451.695 230l-7.626-15.498h-9.02V230h-17.056v-57.482h26.814c7.708 0 13.666 1.777 17.876 5.33 4.264 3.553 6.396 8.583 6.396 15.088 0 4.209-.848 7.872-2.542 10.988-1.64 3.061-4.018 5.494-7.134 7.298L471.047 230h-19.352Zm-16.646-28.618h9.758c2.569 0 4.537-.683 5.904-2.05 1.421-1.367 2.132-3.335 2.132-5.904 0-2.515-.711-4.428-2.132-5.74-1.367-1.367-3.335-2.05-5.904-2.05h-9.758v15.744Zm48.922-28.864h17.056V230h-17.056v-57.482Zm31.42 0h50.266v10.824l-28.536 33.374h29.11V230h-51.824v-10.742l28.536-33.456h-27.552v-13.284ZM621.557 230l-3.362-9.184h-23.206L591.545 230h-17.548l24.518-57.482h17.548L639.761 230h-18.204Zm-21.812-21.648h13.94l-6.888-18.778-7.052 18.778Zm75.943-35.834c6.123 0 11.507 1.203 16.154 3.608 4.701 2.351 8.337 5.713 10.906 10.086 2.569 4.319 3.854 9.321 3.854 15.006 0 5.685-1.312 10.715-3.936 15.088-2.624 4.373-6.314 7.763-11.07 10.168-4.756 2.351-10.25 3.526-16.482 3.526h-24.6v-57.482h25.174Zm.492 44.116c3.881 0 7.025-1.394 9.43-4.182 2.405-2.788 3.608-6.478 3.608-11.07 0-4.592-1.285-8.309-3.854-11.152s-5.904-4.264-10.004-4.264h-7.79v30.668h8.61ZM759.999 230l-3.362-9.184h-23.206L729.987 230h-17.548l24.518-57.482h17.548L778.203 230h-18.204Zm-21.812-21.648h13.94l-6.888-18.778-7.052 18.778Z" />
    <path fill="#fff"
        d="M188.614 417.56c-3.492-2.134-7.081-3.783-10.767-4.947-3.622-1.164-6.823-1.746-9.603-1.746-3.104 0-5.562.582-7.372 1.746-1.811 1.164-2.716 2.781-2.716 4.85 0 1.875.614 3.46 1.843 4.753 1.293 1.229 2.877 2.263 4.753 3.104 1.94.776 4.559 1.649 7.857 2.619 4.591 1.358 8.342 2.716 11.252 4.074 2.974 1.358 5.496 3.363 7.566 6.014 2.069 2.651 3.104 6.143 3.104 10.476 0 4.139-1.132 7.76-3.395 10.864-2.199 3.039-5.271 5.367-9.215 6.984-3.88 1.617-8.342 2.425-13.386 2.425-5.303 0-10.476-.97-15.52-2.91-5.044-2.005-9.442-4.656-13.192-7.954l5.432-11.058a39.754 39.754 0 0 0 11.543 7.469c4.268 1.811 8.245 2.716 11.931 2.716 3.621 0 6.466-.679 8.536-2.037 2.069-1.423 3.104-3.33 3.104-5.723 0-1.94-.647-3.524-1.94-4.753-1.229-1.293-2.813-2.328-4.753-3.104-1.94-.776-4.592-1.649-7.954-2.619-4.592-1.358-8.342-2.684-11.252-3.977-2.91-1.293-5.4-3.233-7.469-5.82-2.07-2.651-3.104-6.111-3.104-10.379 0-3.945 1.034-7.372 3.104-10.282 2.134-2.975 5.108-5.27 8.924-6.887 3.88-1.617 8.342-2.425 13.386-2.425a44.6 44.6 0 0 1 12.998 1.94c4.332 1.293 8.18 3.039 11.543 5.238l-5.238 11.349Zm20.169-17.46h12.998v29.003h33.853V400.1h12.998V468h-12.998v-27.548h-33.853V468h-12.998v-67.9Zm109.42-.873c6.725 0 12.836 1.52 18.333 4.559 5.561 3.039 9.926 7.21 13.095 12.513 3.168 5.303 4.753 11.187 4.753 17.654 0 6.467-1.585 12.384-4.753 17.751-3.169 5.303-7.534 9.506-13.095 12.61-5.497 3.104-11.608 4.656-18.333 4.656-6.726 0-12.869-1.552-18.43-4.656-5.497-3.104-9.83-7.307-12.998-12.61-3.169-5.367-4.753-11.284-4.753-17.751 0-6.467 1.584-12.351 4.753-17.654 3.168-5.303 7.501-9.474 12.998-12.513 5.561-3.039 11.704-4.559 18.43-4.559Zm.194 11.64c-4.139 0-7.987 1.035-11.543 3.104-3.557 2.005-6.37 4.785-8.439 8.342-2.07 3.492-3.104 7.372-3.104 11.64 0 4.268 1.034 8.18 3.104 11.737 2.134 3.557 4.947 6.37 8.439 8.439 3.556 2.069 7.404 3.104 11.543 3.104 4.074 0 7.857-1.035 11.349-3.104s6.24-4.882 8.245-8.439c2.069-3.557 3.104-7.469 3.104-11.737s-1.035-8.148-3.104-11.64c-2.005-3.557-4.753-6.337-8.245-8.342-3.492-2.069-7.275-3.104-11.349-3.104ZM449.136 400.1h13.483L439.63 468h-13.483l-15.52-51.507L394.816 468h-13.289l-22.892-67.9h13.968l16.005 53.835 15.908-53.835h12.804l16.005 54.029 15.811-54.029Zm66.462 67.9-11.737-20.079c-.518.065-1.326.097-2.425.097H486.11V468h-12.998v-67.9h28.324c8.794 0 15.584 2.037 20.37 6.111 4.785 4.074 7.178 9.829 7.178 17.266 0 5.303-1.164 9.829-3.492 13.58-2.264 3.751-5.594 6.564-9.991 8.439L530.439 468h-14.841Zm-29.488-31.428h15.326c4.914 0 8.665-1.067 11.252-3.201 2.586-2.134 3.88-5.303 3.88-9.506 0-4.139-1.294-7.243-3.88-9.312-2.587-2.069-6.338-3.104-11.252-3.104H486.11v25.123Zm89.885-37.345c6.726 0 12.837 1.52 18.333 4.559 5.562 3.039 9.927 7.21 13.095 12.513 3.169 5.303 4.753 11.187 4.753 17.654 0 6.467-1.584 12.384-4.753 17.751-3.168 5.303-7.533 9.506-13.095 12.61-5.496 3.104-11.607 4.656-18.333 4.656-6.725 0-12.868-1.552-18.43-4.656-5.496-3.104-9.829-7.307-12.998-12.61-3.168-5.367-4.753-11.284-4.753-17.751 0-6.467 1.585-12.351 4.753-17.654 3.169-5.303 7.502-9.474 12.998-12.513 5.562-3.039 11.705-4.559 18.43-4.559Zm.194 11.64c-4.138 0-7.986 1.035-11.543 3.104-3.556 2.005-6.369 4.785-8.439 8.342-2.069 3.492-3.104 7.372-3.104 11.64 0 4.268 1.035 8.18 3.104 11.737 2.134 3.557 4.947 6.37 8.439 8.439 3.557 2.069 7.405 3.104 11.543 3.104 4.074 0 7.857-1.035 11.349-3.104s6.241-4.882 8.245-8.439c2.07-3.557 3.104-7.469 3.104-11.737s-1.034-8.148-3.104-11.64c-2.004-3.557-4.753-6.337-8.245-8.342-3.492-2.069-7.275-3.104-11.349-3.104Zm77.812-11.64c6.725 0 12.836 1.52 18.333 4.559 5.561 3.039 9.926 7.21 13.095 12.513 3.169 5.303 4.753 11.187 4.753 17.654 0 6.467-1.584 12.384-4.753 17.751-3.169 5.303-7.534 9.506-13.095 12.61-5.497 3.104-11.608 4.656-18.333 4.656-6.725 0-12.869-1.552-18.43-4.656-5.497-3.104-9.829-7.307-12.998-12.61-3.169-5.367-4.753-11.284-4.753-17.751 0-6.467 1.584-12.351 4.753-17.654 3.169-5.303 7.501-9.474 12.998-12.513 5.561-3.039 11.705-4.559 18.43-4.559Zm.194 11.64c-4.139 0-7.986 1.035-11.543 3.104-3.557 2.005-6.37 4.785-8.439 8.342-2.069 3.492-3.104 7.372-3.104 11.64 0 4.268 1.035 8.18 3.104 11.737 2.134 3.557 4.947 6.37 8.439 8.439 3.557 2.069 7.404 3.104 11.543 3.104 4.074 0 7.857-1.035 11.349-3.104s6.24-4.882 8.245-8.439c2.069-3.557 3.104-7.469 3.104-11.737s-1.035-8.148-3.104-11.64c-2.005-3.557-4.753-6.337-8.245-8.342-3.492-2.069-7.275-3.104-11.349-3.104Zm49.334-10.767h14.841l22.504 43.747 22.31-43.747h14.841V468h-11.931v-48.694l-21.146 41.71h-8.342l-21.243-41.71V468h-11.834v-67.9ZM143.208 542v-51.1h23.214c16.717 0 28.178 10.074 28.178 25.55S183.139 542 166.422 542h-23.214Zm11.826-9.709h10.804c10.147 0 16.79-6.059 16.79-15.841s-6.643-15.841-16.79-15.841h-10.804v31.682Zm60.967.219h27.813V542h-39.566v-51.1h38.617v9.49h-26.864v11.096h23.725v9.198h-23.725v11.826Zm97.536 9.49-4.526-10.95h-23.725L280.76 542h-12.118l22.776-51.1h11.68l22.849 51.1h-12.41Zm-24.455-19.929h16.206l-8.103-19.564-8.103 19.564Zm64.53 20.805c-14.527 0-23.141-8.322-23.141-23.36V490.9h11.826v28.178c0 9.709 4.234 13.724 11.388 13.724 7.227 0 11.388-4.015 11.388-13.724V490.9h11.68v28.616c0 15.038-8.614 23.36-23.141 23.36Zm45.287-.876v-41.464h-16.352V490.9h44.53v9.636h-16.352V542h-11.826Zm59.305.876c-16.133 0-27.959-11.242-27.959-26.426 0-15.184 11.826-26.426 27.959-26.426 16.06 0 27.959 11.169 27.959 26.426 0 15.257-11.899 26.426-27.959 26.426Zm0-10.074c9.125 0 15.987-6.643 15.987-16.352s-6.862-16.352-15.987-16.352-15.987 6.643-15.987 16.352 6.862 16.352 15.987 16.352ZM553.377 542h-11.096l-.073-30.66-15.038 25.258h-5.329l-14.965-24.601V542H495.78v-51.1h9.782l19.126 31.755 18.834-31.755h9.709l.146 51.1Zm51.033 0-4.526-10.95h-23.725L571.633 542h-12.118l22.776-51.1h11.68L616.82 542h-12.41Zm-24.455-19.929h16.206l-8.103-19.564-8.103 19.564Zm67.296 10.731c5.11 0 9.417-2.044 12.848-6.059l7.592 7.008c-4.599 5.694-11.607 8.833-20.002 9.125l-.657 2.774c4.453.511 6.351 3.066 6.351 6.059 0 4.453-4.234 7.227-10.731 7.227-2.555 0-5.11-.584-6.789-1.533l1.752-4.891c1.387.657 2.993 1.095 4.745 1.095 2.701 0 3.796-.949 3.796-2.336 0-1.241-1.022-2.117-3.577-2.117h-2.482l1.606-6.643c-13.286-2.044-22.776-12.264-22.776-26.061 0-15.403 11.826-26.426 27.74-26.426 8.833 0 16.206 3.212 21.024 9.052l-7.592 7.008c-3.431-3.942-7.738-5.986-12.848-5.986-9.563 0-16.352 6.716-16.352 16.352s6.789 16.352 16.352 16.352Zm45.313-50.443c-1.971 0-3.358 1.46-3.504 4.088h-5.767c.146-6.497 3.431-10.658 8.541-10.658 5.037 0 7.592 4.672 10.22 4.672 1.971 0 3.358-1.533 3.504-3.942h5.767c-.146 6.278-3.431 10.439-8.541 10.439-5.037 0-7.592-4.599-10.22-4.599ZM713.588 542l-4.526-10.95h-23.725L680.811 542h-12.118l22.776-51.1h11.68l22.849 51.1h-12.41Zm-24.455-19.929h16.206l-8.103-19.564-8.103 19.564Zm66.931 20.805c-16.133 0-27.959-11.242-27.959-26.426 0-15.184 11.826-26.426 27.959-26.426 16.06 0 27.959 11.169 27.959 26.426 0 15.257-11.899 26.426-27.959 26.426Zm0-10.074c9.125 0 15.987-6.643 15.987-16.352s-6.862-16.352-15.987-16.352-15.987 6.643-15.987 16.352 6.862 16.352 15.987 16.352Z" />
    <defs>
        <filter id="a" width="924.2" height="890.556" x=".4" y=".4" color-interpolation-filters="sRGB"
            filterUnits="userSpaceOnUse">
            <feFlood flood-opacity="0" result="BackgroundImageFix" />
            <feColorMatrix in="SourceAlpha" result="hardAlpha" values="0 0 0 0 0 0 0 0 0 0 0 0 0 0 0 0 0 0 127 0" />
            <feOffset dy="23" />
            <feGaussianBlur stdDeviation="18.3" />
            <feComposite in2="hardAlpha" operator="out" />
            <feColorMatrix values="0 0 0 0 0 0 0 0 0 0 0 0 0 0 0 0 0 0 0.25 0" />
            <feBlend in2="BackgroundImageFix" result="effect1_dropShadow_605_3" />
            <feBlend in="SourceGraphic" in2="effect1_dropShadow_605_3" result="shape" />
        </filter>
    </defs>
</svg>