<svg xmlns="http://www.w3.org/2000/svg" fill="none" viewBox="0 0 925 891">
    <g filter="url(#a)">
        <path fill="#003EF9"
            d="M56 104v491.889a70.999 70.999 0 0 0 39.948 63.849l266.4 129.556a229 229 0 0 0 200.304 0l266.4-129.556A71 71 0 0 0 869 595.889V104c0-39.212-31.788-71-71-71H127c-39.212 0-71 31.788-71 71Z" />
        <path stroke="#FBFBFB" stroke-width="38"
            d="M56 104v491.889a70.999 70.999 0 0 0 39.948 63.849l266.4 129.556a229 229 0 0 0 200.304 0l266.4-129.556A71 71 0 0 0 869 595.889V104c0-39.212-31.788-71-71-71H127c-39.212 0-71 31.788-71 71Z" />
    </g>
    <rect width="813" height="252" x="56" y="33" fill="#FBFBFB" rx="57" />
    <path fill="#003EF9"
        d="m270.734 148-7.626-15.498h-9.02V148h-17.056V90.518h26.814c7.708 0 13.667 1.777 17.876 5.33 4.264 3.553 6.396 8.583 6.396 15.088 0 4.209-.847 7.872-2.542 10.988-1.64 3.061-4.018 5.494-7.134 7.298L290.086 148h-19.352Zm-16.646-28.618h9.758c2.569 0 4.537-.683 5.904-2.05 1.421-1.367 2.132-3.335 2.132-5.904 0-2.515-.711-4.428-2.132-5.74-1.367-1.367-3.335-2.05-5.904-2.05h-9.758v15.744Zm48.922-28.864h46.986v13.12h-29.93v9.02h27.142v13.12h-27.142v9.102h30.75V148H303.01V90.518Zm57.451 0h18.204l13.12 39.77 13.12-39.77h17.466L400.149 148h-17.712l-21.976-57.482Zm72.983 0h46.986v13.12H450.5v9.02h27.142v13.12H450.5v9.102h30.75V148h-47.806V90.518Zm101.485 0h15.58V148h-14.514l-24.354-31.98V148h-15.662V90.518h14.596l24.354 32.062V90.518Zm57.007 0c6.122 0 11.507 1.203 16.154 3.608 4.701 2.35 8.336 5.713 10.906 10.086 2.569 4.319 3.854 9.321 3.854 15.006 0 5.685-1.312 10.715-3.936 15.088-2.624 4.373-6.314 7.763-11.07 10.168-4.756 2.351-10.25 3.526-16.482 3.526h-24.6V90.518h25.174Zm.492 44.116c3.881 0 7.024-1.394 9.43-4.182 2.405-2.788 3.608-6.478 3.608-11.07 0-4.592-1.285-8.309-3.854-11.152-2.57-2.843-5.904-4.264-10.004-4.264h-7.79v30.668h8.61ZM676.247 148l-3.362-9.184h-23.206L646.235 148h-17.548l24.518-57.482h17.548L694.451 148h-18.204Zm-21.812-21.648h13.94l-6.888-18.778-7.052 18.778ZM195.346 230l-3.362-9.184h-23.206L165.334 230h-17.548l24.518-57.482h17.548L213.55 230h-18.204Zm-21.812-21.648h13.94l-6.888-18.778-7.052 18.778Zm65.321-2.132c0 3.225.93 5.822 2.788 7.79 1.859 1.968 4.182 2.952 6.97 2.952 2.734 0 4.975-.957 6.724-2.87 1.75-1.968 2.624-4.592 2.624-7.872v-33.702h17.056v33.702c0 5.029-1.093 9.43-3.28 13.202-2.132 3.717-5.193 6.615-9.184 8.692-3.99 2.023-8.637 3.034-13.94 3.034-5.357 0-10.058-1.011-14.104-3.034-4.045-2.077-7.188-4.975-9.43-8.692-2.186-3.772-3.28-8.173-3.28-13.202v-33.702h17.056v33.702Zm47.16-33.702h50.512v13.612h-16.728V230h-17.138v-43.87h-16.646v-13.612Zm87.717-1.066c5.904 0 11.234 1.285 15.99 3.854 4.811 2.569 8.556 6.123 11.234 10.66 2.734 4.483 4.1 9.539 4.1 15.17 0 5.685-1.366 10.824-4.1 15.416-2.678 4.537-6.423 8.118-11.234 10.742-4.756 2.569-10.086 3.854-15.99 3.854-5.958 0-11.316-1.285-16.072-3.854-4.756-2.624-8.5-6.205-11.234-10.742-2.678-4.592-4.018-9.731-4.018-15.416 0-5.631 1.34-10.687 4.018-15.17 2.734-4.537 6.478-8.091 11.234-10.66 4.756-2.569 10.114-3.854 16.072-3.854Zm.246 14.186c-2.514 0-4.865.683-7.052 2.05-2.132 1.367-3.854 3.253-5.166 5.658-1.257 2.351-1.886 4.975-1.886 7.872 0 2.897.629 5.549 1.886 7.954 1.312 2.405 3.034 4.319 5.166 5.74 2.187 1.367 4.538 2.05 7.052 2.05 2.46 0 4.729-.683 6.806-2.05 2.132-1.421 3.8-3.307 5.002-5.658 1.203-2.405 1.804-5.084 1.804-8.036 0-2.897-.601-5.521-1.804-7.872-1.202-2.405-2.842-4.291-4.92-5.658-2.077-1.367-4.373-2.05-6.888-2.05ZM451.695 230l-7.626-15.498h-9.02V230h-17.056v-57.482h26.814c7.708 0 13.666 1.777 17.876 5.33 4.264 3.553 6.396 8.583 6.396 15.088 0 4.209-.848 7.872-2.542 10.988-1.64 3.061-4.018 5.494-7.134 7.298L471.047 230h-19.352Zm-16.646-28.618h9.758c2.569 0 4.537-.683 5.904-2.05 1.421-1.367 2.132-3.335 2.132-5.904 0-2.515-.711-4.428-2.132-5.74-1.367-1.367-3.335-2.05-5.904-2.05h-9.758v15.744Zm48.922-28.864h17.056V230h-17.056v-57.482Zm31.42 0h50.266v10.824l-28.536 33.374h29.11V230h-51.824v-10.742l28.536-33.456h-27.552v-13.284ZM621.557 230l-3.362-9.184h-23.206L591.545 230h-17.548l24.518-57.482h17.548L639.761 230h-18.204Zm-21.812-21.648h13.94l-6.888-18.778-7.052 18.778Zm75.943-35.834c6.123 0 11.507 1.203 16.154 3.608 4.701 2.351 8.337 5.713 10.906 10.086 2.569 4.319 3.854 9.321 3.854 15.006 0 5.685-1.312 10.715-3.936 15.088-2.624 4.373-6.314 7.763-11.07 10.168-4.756 2.351-10.25 3.526-16.482 3.526h-24.6v-57.482h25.174Zm.492 44.116c3.881 0 7.025-1.394 9.43-4.182 2.405-2.788 3.608-6.478 3.608-11.07 0-4.592-1.285-8.309-3.854-11.152s-5.904-4.264-10.004-4.264h-7.79v30.668h8.61ZM759.999 230l-3.362-9.184h-23.206L729.987 230h-17.548l24.518-57.482h17.548L778.203 230h-18.204Zm-21.812-21.648h13.94l-6.888-18.778-7.052 18.778Z" />
    <path fill="#fff"
        d="M245.982 387.96c-2.772-1.694-5.621-3.003-8.547-3.927-2.875-.924-5.416-1.386-7.623-1.386-2.464 0-4.415.462-5.852 1.386-1.437.924-2.156 2.207-2.156 3.85 0 1.489.488 2.746 1.463 3.773 1.027.975 2.284 1.797 3.773 2.464 1.54.616 3.619 1.309 6.237 2.079 3.645 1.078 6.622 2.156 8.932 3.234 2.361 1.078 4.363 2.669 6.006 4.774 1.643 2.105 2.464 4.877 2.464 8.316 0 3.285-.898 6.16-2.695 8.624-1.745 2.413-4.184 4.261-7.315 5.544-3.08 1.283-6.622 1.925-10.626 1.925-4.209 0-8.316-.77-12.32-2.31-4.004-1.591-7.495-3.696-10.472-6.314l4.312-8.778a31.565 31.565 0 0 0 9.163 5.929c3.388 1.437 6.545 2.156 9.471 2.156 2.875 0 5.133-.539 6.776-1.617 1.643-1.129 2.464-2.644 2.464-4.543 0-1.54-.513-2.798-1.54-3.773-.975-1.027-2.233-1.848-3.773-2.464-1.54-.616-3.645-1.309-6.314-2.079-3.645-1.078-6.622-2.13-8.932-3.157-2.31-1.027-4.286-2.567-5.929-4.62-1.643-2.105-2.464-4.851-2.464-8.239 0-3.131.821-5.852 2.464-8.162 1.694-2.361 4.055-4.184 7.084-5.467 3.08-1.283 6.622-1.925 10.626-1.925 3.491 0 6.93.513 10.318 1.54 3.439 1.027 6.494 2.413 9.163 4.158l-4.158 9.009Zm16.011-13.86h10.318v23.023h26.873V374.1h10.318V428h-10.318v-21.868h-26.873V428h-10.318v-53.9Zm86.859-.693c5.338 0 10.189 1.206 14.553 3.619 4.414 2.413 7.879 5.724 10.395 9.933 2.515 4.209 3.773 8.881 3.773 14.014 0 5.133-1.258 9.83-3.773 14.091-2.516 4.209-5.981 7.546-10.395 10.01-4.364 2.464-9.215 3.696-14.553 3.696-5.339 0-10.216-1.232-14.63-3.696-4.364-2.464-7.803-5.801-10.318-10.01-2.516-4.261-3.773-8.958-3.773-14.091 0-5.133 1.257-9.805 3.773-14.014 2.515-4.209 5.954-7.52 10.318-9.933 4.414-2.413 9.291-3.619 14.63-3.619Zm.154 9.24c-3.286 0-6.34.821-9.163 2.464-2.824 1.591-5.057 3.799-6.699 6.622-1.643 2.772-2.464 5.852-2.464 9.24s.821 6.494 2.464 9.317c1.694 2.823 3.927 5.056 6.699 6.699 2.823 1.643 5.877 2.464 9.163 2.464 3.234 0 6.237-.821 9.009-2.464 2.772-1.643 4.953-3.876 6.545-6.699 1.642-2.823 2.464-5.929 2.464-9.317s-.822-6.468-2.464-9.24c-1.592-2.823-3.773-5.031-6.545-6.622-2.772-1.643-5.775-2.464-9.009-2.464Zm103.782-8.547h10.703L445.242 428h-10.703l-12.32-40.887L409.668 428h-10.549l-18.172-53.9h11.088l12.705 42.735 12.628-42.735h10.164l12.705 42.889 12.551-42.889Zm52.759 53.9-9.317-15.939c-.411.051-1.053.077-1.925.077h-12.166V428h-10.318v-53.9h22.484c6.981 0 12.371 1.617 16.17 4.851 3.798 3.234 5.698 7.803 5.698 13.706 0 4.209-.924 7.803-2.772 10.78-1.797 2.977-4.441 5.21-7.931 6.699L517.328 428h-11.781Zm-23.408-24.948h12.166c3.901 0 6.878-.847 8.932-2.541 2.053-1.694 3.08-4.209 3.08-7.546 0-3.285-1.027-5.749-3.08-7.392-2.054-1.643-5.031-2.464-8.932-2.464h-12.166v19.943Zm71.352-29.645c5.339 0 10.19 1.206 14.553 3.619 4.415 2.413 7.88 5.724 10.395 9.933 2.516 4.209 3.773 8.881 3.773 14.014 0 5.133-1.257 9.83-3.773 14.091-2.515 4.209-5.98 7.546-10.395 10.01-4.363 2.464-9.214 3.696-14.553 3.696-5.338 0-10.215-1.232-14.63-3.696-4.363-2.464-7.802-5.801-10.318-10.01-2.515-4.261-3.773-8.958-3.773-14.091 0-5.133 1.258-9.805 3.773-14.014 2.516-4.209 5.955-7.52 10.318-9.933 4.415-2.413 9.292-3.619 14.63-3.619Zm.154 9.24c-3.285 0-6.339.821-9.163 2.464-2.823 1.591-5.056 3.799-6.699 6.622-1.642 2.772-2.464 5.852-2.464 9.24s.822 6.494 2.464 9.317c1.694 2.823 3.927 5.056 6.699 6.699 2.824 1.643 5.878 2.464 9.163 2.464 3.234 0 6.237-.821 9.009-2.464 2.772-1.643 4.954-3.876 6.545-6.699 1.643-2.823 2.464-5.929 2.464-9.317s-.821-6.468-2.464-9.24c-1.591-2.823-3.773-5.031-6.545-6.622-2.772-1.643-5.775-2.464-9.009-2.464Zm61.768-9.24c5.339 0 10.19 1.206 14.553 3.619 4.415 2.413 7.88 5.724 10.395 9.933 2.515 4.209 3.773 8.881 3.773 14.014 0 5.133-1.258 9.83-3.773 14.091-2.515 4.209-5.98 7.546-10.395 10.01-4.363 2.464-9.214 3.696-14.553 3.696s-10.215-1.232-14.63-3.696c-4.363-2.464-7.803-5.801-10.318-10.01-2.515-4.261-3.773-8.958-3.773-14.091 0-5.133 1.258-9.805 3.773-14.014s5.955-7.52 10.318-9.933c4.415-2.413 9.291-3.619 14.63-3.619Zm.154 9.24c-3.285 0-6.34.821-9.163 2.464-2.823 1.591-5.056 3.799-6.699 6.622-1.643 2.772-2.464 5.852-2.464 9.24s.821 6.494 2.464 9.317c1.694 2.823 3.927 5.056 6.699 6.699 2.823 1.643 5.878 2.464 9.163 2.464 3.234 0 6.237-.821 9.009-2.464 2.772-1.643 4.954-3.876 6.545-6.699 1.643-2.823 2.464-5.929 2.464-9.317s-.821-6.468-2.464-9.24c-1.591-2.823-3.773-5.031-6.545-6.622-2.772-1.643-5.775-2.464-9.009-2.464Zm39.162-8.547h11.781l17.864 34.727 17.71-34.727h11.781V428h-9.471v-38.654l-16.786 33.11h-6.622l-16.863-33.11V428h-9.394v-53.9Zm-402.203 79c5.39 0 10.215 1.155 14.476 3.465 4.261 2.259 7.597 5.441 10.01 9.548 2.413 4.107 3.619 8.752 3.619 13.937 0 5.185-1.232 9.83-3.696 13.937-2.413 4.055-5.775 7.238-10.087 9.548-4.312 2.31-9.214 3.465-14.707 3.465h-22.022v-53.9h22.407Zm.231 44.814c3.285 0 6.237-.744 8.855-2.233 2.669-1.54 4.748-3.645 6.237-6.314 1.489-2.721 2.233-5.801 2.233-9.24s-.77-6.519-2.31-9.24c-1.54-2.772-3.67-4.902-6.391-6.391-2.669-1.54-5.672-2.31-9.009-2.31h-11.935v35.728h12.32Zm37.687-44.814h39.501v9.009h-29.183v13.321h26.18v9.009h-26.18v13.552h30.107V507h-40.425v-53.9Zm110.514-15.477-13.937 11.088h-9.394l10.395-11.088h12.936Zm.847 69.377-4.774-11.55h-25.025L367.232 507H354.45l24.024-53.9h12.32l24.101 53.9h-13.09Zm-25.795-21.021h17.094l-8.547-20.636-8.547 20.636Zm68.066 21.945c-15.323 0-24.409-8.778-24.409-24.64V453.1h12.474v29.722c0 10.241 4.466 14.476 12.012 14.476 7.623 0 12.012-4.235 12.012-14.476V453.1h12.32v30.184c0 15.862-9.086 24.64-24.409 24.64Zm37.506-.924v-53.9h24.486c17.633 0 29.722 10.626 29.722 26.95 0 16.324-12.089 26.95-29.722 26.95h-24.486Zm12.474-10.241h11.396c10.703 0 17.71-6.391 17.71-16.709s-7.007-16.709-17.71-16.709h-11.396v33.418ZM545.967 507v-53.9h12.474V507h-12.474Zm52.139.924c-17.017 0-29.491-11.858-29.491-27.874s12.474-27.874 29.491-27.874c16.94 0 29.491 11.781 29.491 27.874 0 16.093-12.551 27.874-29.491 27.874Zm0-10.626c9.625 0 16.863-7.007 16.863-17.248 0-10.241-7.238-17.248-16.863-17.248s-16.863 7.007-16.863 17.248c0 10.241 7.238 17.248 16.863 17.248Zm98.703 11.473-8.162-8.085c-4.825 4.517-10.164 6.776-16.016 6.776-3.234 0-6.185-.642-8.855-1.925-2.618-1.335-4.697-3.157-6.237-5.467-1.488-2.361-2.233-5.005-2.233-7.931 0-3.388 1.001-6.211 3.003-8.47 2.054-2.31 4.851-4.415 8.393-6.314-1.694-2.361-2.951-4.517-3.773-6.468-.77-2.002-1.155-3.953-1.155-5.852 0-3.696 1.309-6.673 3.927-8.932 2.618-2.31 6.109-3.465 10.472-3.465 2.721 0 5.159.488 7.315 1.463 2.156.975 3.825 2.361 5.005 4.158 1.181 1.745 1.771 3.747 1.771 6.006 0 3.337-1.129 6.109-3.388 8.316-2.258 2.156-5.441 4.261-9.548 6.314 2.978 3.285 6.468 6.904 10.472 10.857 1.694-2.567 3.183-5.698 4.466-9.394l6.545 4.851c-1.437 3.747-3.234 7.084-5.39 10.01l8.547 8.316-5.159 5.236Zm-27.104-43.736c0 2.515 1.207 5.467 3.619 8.855 2.875-1.489 5.082-2.952 6.622-4.389 1.54-1.489 2.31-3.234 2.31-5.236 0-1.643-.564-2.952-1.694-3.927-1.078-1.027-2.515-1.54-4.312-1.54-1.95 0-3.542.59-4.774 1.771-1.18 1.181-1.771 2.669-1.771 4.466Zm3.311 34.881c3.542 0 6.956-1.514 10.241-4.543-5.236-5.185-9.394-9.522-12.474-13.013-2.31 1.335-4.081 2.721-5.313 4.158-1.232 1.386-1.848 3.003-1.848 4.851 0 2.515.899 4.569 2.695 6.16 1.797 1.591 4.03 2.387 6.699 2.387ZM236.706 586l-4.774-11.55h-25.025L202.133 586h-12.782l24.024-53.9h12.32l24.101 53.9h-13.09Zm-25.795-21.021h17.094l-8.547-20.636-8.547 20.636Zm68.066 21.945c-15.323 0-24.409-8.778-24.409-24.64V532.1h12.474v29.722c0 10.241 4.466 14.476 12.012 14.476 7.623 0 12.012-4.235 12.012-14.476V532.1h12.32v30.184c0 15.862-9.086 24.64-24.409 24.64Zm47.769-.924v-43.736h-17.248V532.1h46.97v10.164H339.22V586h-12.474Zm62.554.924c-17.017 0-29.491-11.858-29.491-27.874s12.474-27.874 29.491-27.874c16.94 0 29.491 11.781 29.491 27.874 0 16.093-12.551 27.874-29.491 27.874Zm0-10.626c9.625 0 16.863-7.007 16.863-17.248 0-10.241-7.238-17.248-16.863-17.248s-16.863 7.007-16.863 17.248c0 10.241 7.238 17.248 16.863 17.248ZM489.689 586h-11.704l-.077-32.34-15.862 26.642h-5.621l-15.785-25.949V586h-11.704v-53.9h10.318l20.174 33.495 19.866-33.495h10.241l.154 53.9Zm53.829 0-4.774-11.55h-25.025L508.945 586h-12.782l24.024-53.9h12.32l24.101 53.9h-13.09Zm-25.795-21.021h17.094l-8.547-20.636-8.547 20.636Zm70.983 11.319c5.39 0 9.933-2.156 13.552-6.391l8.008 7.392c-4.851 6.006-12.243 9.317-21.098 9.625l-.693 2.926c4.697.539 6.699 3.234 6.699 6.391 0 4.697-4.466 7.623-11.319 7.623-2.695 0-5.39-.616-7.161-1.617l1.848-5.159c1.463.693 3.157 1.155 5.005 1.155 2.849 0 4.004-1.001 4.004-2.464 0-1.309-1.078-2.233-3.773-2.233h-2.618l1.694-7.007c-14.014-2.156-24.024-12.936-24.024-27.489 0-16.247 12.474-27.874 29.26-27.874 9.317 0 17.094 3.388 22.176 9.548l-8.008 7.392c-3.619-4.158-8.162-6.314-13.552-6.314-10.087 0-17.248 7.084-17.248 17.248 0 10.164 7.161 17.248 17.248 17.248Zm47.796-53.207c-2.079 0-3.542 1.54-3.696 4.312h-6.083c.154-6.853 3.619-11.242 9.009-11.242 5.313 0 8.008 4.928 10.78 4.928 2.079 0 3.542-1.617 3.696-4.158h6.083c-.154 6.622-3.619 11.011-9.009 11.011-5.313 0-8.008-4.851-10.78-4.851ZM658.678 586l-4.774-11.55h-25.025L624.105 586h-12.782l24.024-53.9h12.32l24.101 53.9h-13.09Zm-25.795-21.021h17.094l-8.547-20.636-8.547 20.636Zm70.598 21.945c-17.017 0-29.491-11.858-29.491-27.874s12.474-27.874 29.491-27.874c16.94 0 29.491 11.781 29.491 27.874 0 16.093-12.551 27.874-29.491 27.874Zm0-10.626c9.625 0 16.863-7.007 16.863-17.248 0-10.241-7.238-17.248-16.863-17.248s-16.863 7.007-16.863 17.248c0 10.241 7.238 17.248 16.863 17.248Z" />
    <defs>
        <filter id="a" width="924.2" height="890.556" x=".4" y=".4" color-interpolation-filters="sRGB"
            filterUnits="userSpaceOnUse">
            <feFlood flood-opacity="0" result="BackgroundImageFix" />
            <feColorMatrix in="SourceAlpha" result="hardAlpha" values="0 0 0 0 0 0 0 0 0 0 0 0 0 0 0 0 0 0 127 0" />
            <feOffset dy="23" />
            <feGaussianBlur stdDeviation="18.3" />
            <feComposite in2="hardAlpha" operator="out" />
            <feColorMatrix values="0 0 0 0 0 0 0 0 0 0 0 0 0 0 0 0 0 0 0.25 0" />
            <feBlend in2="BackgroundImageFix" result="effect1_dropShadow_605_4" />
            <feBlend in="SourceGraphic" in2="effect1_dropShadow_605_4" result="shape" />
        </filter>
    </defs>
</svg>