<svg width="89" height="89" viewBox="0 0 89 89" fill="none" xmlns="http://www.w3.org/2000/svg">
<path d="M68.7255 84.7495C68.7255 86.8166 67.3475 88.1946 65.2804 88.1946C63.2134 88.1946 61.8353 86.8166 61.8353 84.7495C61.8353 82.6825 63.2134 81.3044 65.2804 81.3044C67.3475 81.3044 68.7255 82.6825 68.7255 84.7495ZM19.116 81.3044C17.049 81.3044 15.6709 79.9264 15.6709 77.8593V35.4846L44.2653 9.30178L72.8596 35.4846V47.8869C75.2712 48.2314 77.6828 49.265 79.7499 50.2985V42.0303L83.884 45.8199L88.3626 40.6522L44.2653 0L0.167969 40.3077L4.6466 45.4754L8.78073 41.6857V77.8593C8.78073 83.716 13.2594 88.1946 19.116 88.1946H54.9451L48.0549 81.3044H19.116ZM65.2804 66.835C61.1463 66.835 56.6677 68.9021 53.5671 72.0027L51.1555 74.4142L55.9786 79.2374L58.3902 76.8258C60.1128 75.1032 63.2134 73.7252 65.2804 73.7252C67.692 73.7252 70.4481 74.7587 72.1706 76.8258L74.5822 79.2374L79.4053 74.4142L76.9938 72.0027C73.8932 68.9021 69.4145 66.835 65.2804 66.835ZM85.951 62.7009C80.4389 57.1887 72.8596 53.7436 65.2804 53.7436C57.7012 53.7436 50.4665 56.8442 44.6098 62.7009L42.1982 65.1124L47.0214 69.9356L49.4329 67.524C53.9116 63.0454 59.4237 60.6338 65.2804 60.6338C71.1371 60.6338 76.6493 63.0454 81.1279 67.524L83.5395 69.9356L88.3626 65.1124L85.951 62.7009Z" fill="#003EF9"/>
</svg>
