<svg width="70" height="89" viewBox="0 0 70 89" fill="none" xmlns="http://www.w3.org/2000/svg">
<path d="M34.9238 63.2635C40.1648 63.2635 44.4134 59.0149 44.4134 53.7739C44.4134 48.533 40.1648 44.2844 34.9238 44.2844C29.6829 44.2844 25.4343 48.533 25.4343 53.7739C25.4343 59.0149 29.6829 63.2635 34.9238 63.2635Z" fill="#003EF9"/>
<path d="M66.5555 0H3.29208C1.39417 0 0.128906 1.26527 0.128906 3.16317V85.4056C0.128906 87.3035 1.39417 88.5688 3.29208 88.5688H66.5555C68.4534 88.5688 69.7187 87.3035 69.7187 85.4056V3.16317C69.7187 1.26527 68.4534 0 66.5555 0ZM34.9238 79.0793C21.0058 79.0793 9.61842 67.6919 9.61842 53.7739C9.61842 39.856 21.0058 28.4685 34.9238 28.4685C48.8418 28.4685 60.2292 39.856 60.2292 53.7739C60.2292 67.6919 48.8418 79.0793 34.9238 79.0793ZM50.7397 28.4685C45.3623 28.4685 41.2501 24.3564 41.2501 18.979C41.2501 13.6016 45.3623 9.48952 50.7397 9.48952C56.1171 9.48952 60.2292 13.6016 60.2292 18.979C60.2292 24.3564 56.1171 28.4685 50.7397 28.4685Z" fill="#003EF9"/>
</svg>
