<svg width="53" height="61" viewBox="0 0 53 61" fill="none" xmlns="http://www.w3.org/2000/svg">
<path d="M43.8377 32.4713C43.5973 32.471 43.3651 32.3849 43.1827 32.2284L36.4107 26.4248H19.652C18.3161 26.4232 17.0355 25.8918 16.0908 24.9473C15.1463 24.0026 14.6149 22.722 14.6133 21.3861V5.26232C14.6149 3.92647 15.1463 2.64579 16.0908 1.7012C17.0355 0.756605 18.3161 0.225235 19.652 0.223633H47.8686C49.2045 0.225235 50.4851 0.756605 51.4298 1.7012C52.3743 2.64579 52.9057 3.92647 52.9073 5.26232V21.3861C52.9057 22.722 52.3743 24.0026 51.4298 24.9473C50.4851 25.8918 49.2045 26.4232 47.8686 26.4248H44.8454V31.4635C44.8454 31.7308 44.7392 31.9871 44.5503 32.1761C44.3613 32.365 44.1049 32.4713 43.8377 32.4713ZM19.652 2.23911C18.8502 2.23911 18.0812 2.55763 17.5143 3.12459C16.9473 3.69155 16.6288 4.46052 16.6288 5.26232V21.3861C16.6288 22.1879 16.9473 22.9569 17.5143 23.5238C18.0812 24.0908 18.8502 24.4093 19.652 24.4093H36.7835C37.024 24.409 37.2565 24.4953 37.4386 24.6522L42.8299 29.2727V25.4171C42.8299 25.1498 42.9362 24.8935 43.1251 24.7045C43.3141 24.5156 43.5704 24.4093 43.8377 24.4093H47.8686C48.6704 24.4093 49.4394 24.0908 50.0064 23.5238C50.5733 22.9569 50.8919 22.1879 50.8919 21.3861V5.26232C50.8919 4.46052 50.5733 3.69155 50.0064 3.12459C49.4394 2.55763 48.6704 2.23911 47.8686 2.23911H19.652Z" fill="white"/>
<path d="M33.7592 20.3781C33.5288 20.3758 33.3064 20.2938 33.1295 20.1461C32.9528 19.9985 32.8324 19.7941 32.7892 19.5678C32.746 19.3415 32.7824 19.1072 32.8922 18.9048C33.0021 18.7022 33.1786 18.544 33.3919 18.4569C33.6052 18.3698 33.842 18.3592 34.0623 18.4268C34.2825 18.4945 34.4724 18.6363 34.6 18.8282C34.7275 19.0201 34.7847 19.2501 34.7619 19.4794C34.739 19.7086 34.6376 19.9229 34.4747 20.0858C34.2816 20.2699 34.026 20.3744 33.7592 20.3781Z" fill="white"/>
<path d="M33.7595 17.3548C33.4922 17.3548 33.2358 17.2485 33.0469 17.0596C32.8579 16.8706 32.7517 16.6143 32.7517 16.347V14.1532C32.7545 13.7117 32.9058 13.284 33.1812 12.9389C33.4567 12.594 33.8404 12.3518 34.2704 12.2516C34.7646 12.1226 35.1914 11.8108 35.4645 11.3793C35.7376 10.9477 35.8366 10.4286 35.7417 9.92671C35.6641 9.52795 35.4691 9.16144 35.1819 8.87413C34.8946 8.58693 34.5281 8.39193 34.1293 8.31433C33.8379 8.25994 33.5381 8.27049 33.2513 8.34527C32.9644 8.41994 32.6975 8.5571 32.4698 8.74675C32.242 8.93641 32.0588 9.17403 31.9333 9.4426C31.8079 9.71116 31.7433 10.0041 31.744 10.3006C31.744 10.5678 31.6378 10.8242 31.4488 11.0132C31.2599 11.2021 31.0035 11.3083 30.7363 11.3083C30.469 11.3083 30.2126 11.2021 30.0237 11.0132C29.8347 10.8242 29.7285 10.5678 29.7285 10.3006C29.7287 9.5472 29.9399 8.80893 30.3385 8.16951C30.737 7.53011 31.3066 7.01518 31.9829 6.68313C32.6592 6.35108 33.415 6.2152 34.1646 6.29092C34.9141 6.36663 35.6275 6.6509 36.2237 7.11148C36.82 7.57206 37.2752 8.19051 37.5377 8.8967C37.8003 9.60283 37.8597 10.3685 37.7092 11.1067C37.5586 11.8449 37.2043 12.5262 36.6862 13.0732C36.1682 13.6202 35.5072 14.0111 34.7783 14.2015L34.7672 16.347C34.7672 16.6143 34.661 16.8706 34.472 17.0596C34.2831 17.2485 34.0267 17.3548 33.7595 17.3548Z" fill="white"/>
<path d="M9.57453 60.688C9.30727 60.688 9.05091 60.5818 8.86195 60.3929C8.673 60.2039 8.56679 59.9476 8.56679 59.6803V54.6416H5.54357C4.20772 54.64 2.92704 54.1086 1.98245 53.1641C1.03786 52.2194 0.506485 50.9388 0.504883 49.6029V33.4791C0.506485 32.1433 1.03786 30.8626 1.98245 29.918C2.92704 28.9734 4.20772 28.442 5.54357 28.4404H33.7602C35.0961 28.442 36.3767 28.9734 37.3214 29.918C38.2659 30.8626 38.7973 32.1433 38.7989 33.4791V49.6029C38.7973 50.9388 38.2659 52.2194 37.3214 53.1641C36.3767 54.1086 35.0961 54.64 33.7602 54.6416H17.0016L10.2306 60.4452C10.0479 60.6019 9.81517 60.688 9.57453 60.688ZM5.54357 30.4559C4.74182 30.4559 3.9728 30.7745 3.40584 31.3414C2.83888 31.9084 2.52036 32.6774 2.52036 33.4791V49.6029C2.52036 50.4047 2.83888 51.1737 3.40584 51.7406C3.9728 52.3076 4.74182 52.6261 5.54357 52.6261H9.57453C9.84178 52.6261 10.0981 52.7324 10.2871 52.9213C10.476 53.1103 10.5823 53.3666 10.5823 53.6339V57.4895L15.9727 52.869C16.1554 52.7123 16.388 52.6261 16.6287 52.6261H33.7602C34.562 52.6261 35.331 52.3076 35.898 51.7406C36.4649 51.1737 36.7835 50.4047 36.7835 49.6029V33.4791C36.7835 32.6774 36.4649 31.9084 35.898 31.3414C35.331 30.7745 34.562 30.4559 33.7602 30.4559H5.54357Z" fill="white"/>
<path d="M9.574 36.5018H7.55852C7.29127 36.5018 7.0349 36.3956 6.84595 36.2066C6.657 36.0177 6.55078 35.7613 6.55078 35.4941C6.55078 35.2268 6.657 34.9704 6.84595 34.7815C7.0349 34.5925 7.29127 34.4863 7.55852 34.4863H9.574C9.84125 34.4863 10.0976 34.5925 10.2866 34.7815C10.4755 34.9704 10.5817 35.2268 10.5817 35.4941C10.5817 35.7613 10.4755 36.0177 10.2866 36.2066C10.0976 36.3956 9.84125 36.5018 9.574 36.5018Z" fill="white"/>
<path d="M31.7457 36.5018H13.6064C13.3391 36.5018 13.0828 36.3956 12.8938 36.2066C12.7048 36.0177 12.5986 35.7613 12.5986 35.4941C12.5986 35.2268 12.7048 34.9704 12.8938 34.7815C13.0828 34.5925 13.3391 34.4863 13.6064 34.4863H31.7457C32.0129 34.4863 32.2693 34.5925 32.4582 34.7815C32.6472 34.9704 32.7534 35.2268 32.7534 35.4941C32.7534 35.7613 32.6472 36.0177 32.4582 36.2066C32.2693 36.3956 32.0129 36.5018 31.7457 36.5018Z" fill="white"/>
<path d="M9.574 40.5331H7.55852C7.29127 40.5331 7.0349 40.4268 6.84595 40.2379C6.657 40.0489 6.55078 39.7926 6.55078 39.5253C6.55078 39.2581 6.657 39.0017 6.84595 38.8127C7.0349 38.6238 7.29127 38.5176 7.55852 38.5176H9.574C9.84125 38.5176 10.0976 38.6238 10.2866 38.8127C10.4755 39.0017 10.5817 39.2581 10.5817 39.5253C10.5817 39.7926 10.4755 40.0489 10.2866 40.2379C10.0976 40.4268 9.84125 40.5331 9.574 40.5331Z" fill="white"/>
<path d="M31.7457 40.5331H13.6064C13.3391 40.5331 13.0828 40.4268 12.8938 40.2379C12.7048 40.0489 12.5986 39.7926 12.5986 39.5253C12.5986 39.2581 12.7048 39.0017 12.8938 38.8127C13.0828 38.6238 13.3391 38.5176 13.6064 38.5176H31.7457C32.0129 38.5176 32.2693 38.6238 32.4582 38.8127C32.6472 39.0017 32.7534 39.2581 32.7534 39.5253C32.7534 39.7926 32.6472 40.0489 32.4582 40.2379C32.2693 40.4268 32.0129 40.5331 31.7457 40.5331Z" fill="white"/>
<path d="M9.574 44.5633H7.55852C7.29127 44.5633 7.0349 44.4571 6.84595 44.2682C6.657 44.0792 6.55078 43.8228 6.55078 43.5556C6.55078 43.2883 6.657 43.032 6.84595 42.843C7.0349 42.6541 7.29127 42.5479 7.55852 42.5479H9.574C9.84125 42.5479 10.0976 42.6541 10.2866 42.843C10.4755 43.032 10.5817 43.2883 10.5817 43.5556C10.5817 43.8228 10.4755 44.0792 10.2866 44.2682C10.0976 44.4571 9.84125 44.5633 9.574 44.5633Z" fill="white"/>
<path d="M31.7457 44.5633H13.6064C13.3391 44.5633 13.0828 44.4571 12.8938 44.2682C12.7048 44.0792 12.5986 43.8228 12.5986 43.5556C12.5986 43.2883 12.7048 43.032 12.8938 42.843C13.0828 42.6541 13.3391 42.5479 13.6064 42.5479H31.7457C32.0129 42.5479 32.2693 42.6541 32.4582 42.843C32.6472 43.032 32.7534 43.2883 32.7534 43.5556C32.7534 43.8228 32.6472 44.0792 32.4582 44.2682C32.2693 44.4571 32.0129 44.5633 31.7457 44.5633Z" fill="white"/>
<path d="M9.574 48.5946H7.55852C7.29127 48.5946 7.0349 48.4884 6.84595 48.2994C6.657 48.1105 6.55078 47.8541 6.55078 47.5868C6.55078 47.3196 6.657 47.0632 6.84595 46.8743C7.0349 46.6853 7.29127 46.5791 7.55852 46.5791H9.574C9.84125 46.5791 10.0976 46.6853 10.2866 46.8743C10.4755 47.0632 10.5817 47.3196 10.5817 47.5868C10.5817 47.8541 10.4755 48.1105 10.2866 48.2994C10.0976 48.4884 9.84125 48.5946 9.574 48.5946Z" fill="white"/>
<path d="M31.7457 48.5946H13.6064C13.3391 48.5946 13.0828 48.4884 12.8938 48.2994C12.7048 48.1105 12.5986 47.8541 12.5986 47.5868C12.5986 47.3196 12.7048 47.0632 12.8938 46.8743C13.0828 46.6853 13.3391 46.5791 13.6064 46.5791H31.7457C32.0129 46.5791 32.2693 46.6853 32.4582 46.8743C32.6472 47.0632 32.7534 47.3196 32.7534 47.5868C32.7534 47.8541 32.6472 48.1105 32.4582 48.2994C32.2693 48.4884 32.0129 48.5946 31.7457 48.5946Z" fill="white"/>
</svg>
