<svg xmlns="http://www.w3.org/2000/svg" width="105" height="105" fill="none"><path fill="#fff" d="M99.584 49.053a1.185 1.185 0 0 0 .838-2.022L81.667 28.276a1.183 1.183 0 0 0-1.676 0L61.236 47.03a1.186 1.186 0 1 0 1.676 1.675L80.83 30.79l17.917 17.916a1.182 1.182 0 0 0 .838.347Z"/><path fill="#fff" d="M95.554 64.278V50.175c0-.314-.125-.615-.347-.837l-13.54-13.54a1.185 1.185 0 0 0-1.676 0l-13.539 13.54a1.185 1.185 0 0 0-.347.837v14.103a4.885 4.885 0 0 0 4.88 4.879h4.877a1.185 1.185 0 0 0 1.185-1.185v-8.348a3.782 3.782 0 1 1 7.565 0v8.348a1.185 1.185 0 0 0 1.185 1.185h4.877a4.885 4.885 0 0 0 4.88-4.88ZM80.829 53.472a6.159 6.159 0 0 0-6.152 6.152v7.163h-3.693a2.512 2.512 0 0 1-2.508-2.51v-13.61L80.83 38.311l12.355 12.354v13.612a2.512 2.512 0 0 1-2.51 2.509h-3.693v-7.163a6.16 6.16 0 0 0-6.153-6.152ZM29.288 42.397a1.18 1.18 0 0 0 .453-.092 1.125 1.125 0 0 0 .531-.435 1.193 1.193 0 0 0 .178-.889 1.19 1.19 0 0 0-.93-.93 1.105 1.105 0 0 0-.463 0 1.143 1.143 0 0 0-.427.178c-.066.042-.126.09-.18.145a1.228 1.228 0 0 0-.259.386 1.14 1.14 0 0 0-.065.222 1.191 1.191 0 0 0 .504 1.218c.064.043.133.078.205.106.071.03.146.053.222.068.076.017.154.025.231.023ZM37.852 41.666c.03.07.065.14.107.205.044.064.094.124.148.18.056.055.116.105.18.148.13.084.276.144.427.175a1.134 1.134 0 0 0 .685-.068 1.116 1.116 0 0 0 .385-.255c.22-.223.345-.524.347-.838a1.254 1.254 0 0 0-.092-.453 1.344 1.344 0 0 0-.107-.205 1.43 1.43 0 0 0-.148-.18 1.194 1.194 0 0 0-1.07-.323 1.158 1.158 0 0 0-.426.177 1.196 1.196 0 0 0-.181.145 1.438 1.438 0 0 0-.148.18 1.322 1.322 0 0 0-.175.428 1.134 1.134 0 0 0 .068.684ZM39.243 49.686a1.185 1.185 0 1 0-1.458-1.868 5.868 5.868 0 0 1-6.939.198 1.184 1.184 0 1 0-1.35 1.948 8.236 8.236 0 0 0 9.747-.278ZM47.193 84.445a1.185 1.185 0 0 0-1.185 1.185V87h-1.006a1.185 1.185 0 1 0 0 2.37h8.637a1.185 1.185 0 0 0 0-2.37h-.993v-4.222a1.185 1.185 0 1 0-2.37 0V87h-1.898v-1.37a1.184 1.184 0 0 0-1.185-1.185Z"/><path fill="#fff" d="M62.816 101.007a1.185 1.185 0 0 0 1.185-1.175c.002-.227.035-5.646-1.287-13.03A31.573 31.573 0 0 0 51.7 68.044a1.185 1.185 0 0 0-1.508 1.828A29.2 29.2 0 0 1 60.381 87.22a81.056 81.056 0 0 1 1.23 11.417H6.621c.14-3.83.55-7.645 1.23-11.417a29.143 29.143 0 0 1 10.822-17.854 96.89 96.89 0 0 1 2.284-1.729c1.899 14.991 12.1 21.254 12.552 21.524.038.022.077.041.117.059l.027.014c.02.008.04.013.059.02.26.099.548.099.809 0 .02-.007.04-.012.059-.02l.027-.014c.04-.018.079-.037.117-.06.472-.281 11.596-7.098 12.762-23.59v-.096c0-.06-.005-.12-.015-.179l-.003-.024a1.174 1.174 0 0 0-.151-.395c-.006-.01-.01-.02-.017-.03a1.173 1.173 0 0 0-.16-.196 1.18 1.18 0 0 0-.158-.135l-.003-.002a60.41 60.41 0 0 0-2.648-1.743c-.048-.03-.098-.063-.146-.092-.04-.026-.082-.049-.123-.074a36.535 36.535 0 0 0-3.223-1.776v-3.274a13.098 13.098 0 0 0 9.35-11.358h1.273a4.95 4.95 0 0 0 4.863-5.91 5.785 5.785 0 0 0 .99-6.167 10.035 10.035 0 0 0-2.421-3.454v-5.951a1.185 1.185 0 0 0-1.185-1.185h-.94C52.044 13.5 46.734 9.595 42.078 8.116V8.05a4.06 4.06 0 0 0-4.055-4.057h-7.81a4.06 4.06 0 0 0-4.057 4.057v.065c-4.708 1.493-9.97 5.42-10.692 15.414h-.94a1.186 1.186 0 0 0-1.184 1.185v5.95a10.033 10.033 0 0 0-2.422 3.455 5.84 5.84 0 0 0 .86 6.021c.04.046.085.09.133.128a4.953 4.953 0 0 0 4.86 5.927h1.274a13.098 13.098 0 0 0 9.349 11.358v3.275l-.16.078c-.182.09-.367.182-.555.278l-.165.086c-.499.26-1.016.545-1.55.858l-.11.065c-.249.146-.501.298-.757.455l-.076.046a56.19 56.19 0 0 0-1.76 1.133l-.116.077c-.276.186-.557.377-.84.574l-.052.035-.004.003a92.544 92.544 0 0 0-4.033 2.98A31.51 31.51 0 0 0 5.518 86.8c-1.322 7.385-1.29 12.804-1.288 13.031a1.184 1.184 0 0 0 1.185 1.175h57.401ZM40.02 63.063c.195.096.394.197.595.302.07.036.142.076.213.113.133.071.267.142.403.217.086.047.175.098.262.147.125.07.25.14.376.213l.286.167.373.22.303.186a47.337 47.337 0 0 1 1.404.89 63.853 63.853 0 0 1 .729.486l.105.072c-.54 5.98-2.532 10.563-4.713 13.904-.72-3.734-1.805-8.839-3.1-13.288l2.764-3.629Zm-1.587 19.52a24.717 24.717 0 0 1-4.316 4.126 24.727 24.727 0 0 1-4.316-4.126c.656-3.593 1.866-9.712 3.37-14.947h1.891c1.505 5.235 2.716 11.354 3.37 14.948Zm-10.22-19.52 2.765 3.628c-1.295 4.45-2.38 9.555-3.1 13.288-2.18-3.34-4.172-7.923-4.712-13.904a42.544 42.544 0 0 1 5.049-3.012h-.001Zm23.25-19.238h-1.217v-5.174h1.217a2.587 2.587 0 1 1 0 5.174Zm3.641-5.94a4.94 4.94 0 0 0-3.64-1.604h-1.218v-4.317h2.516c.011.009.02.02.031.028a7.444 7.444 0 0 1 2.35 3.073 3.421 3.421 0 0 1-.039 2.822v-.001ZM30.213 6.364h7.809a1.689 1.689 0 0 1 1.686 1.687v15.479H28.526V8.049a1.688 1.688 0 0 1 1.686-1.686Zm-4.058 4.26v14.092a1.185 1.185 0 0 0 1.185 1.184h13.553a1.185 1.185 0 0 0 1.185-1.184V10.623c5 1.879 7.792 6.211 8.316 12.906h-4.17a1.185 1.185 0 0 0 0 2.37h6.3v3.694H15.709v-3.694h6.3a1.185 1.185 0 0 0 0-2.37h-4.17c.524-6.7 3.317-11.031 8.316-12.906ZM13.09 35.065a7.441 7.441 0 0 1 2.35-3.073c.012-.008.021-.02.032-.029h2.516v4.319H16.77a4.938 4.938 0 0 0-3.636 1.6 3.45 3.45 0 0 1-.044-2.817Zm1.093 6.174a2.59 2.59 0 0 1 2.587-2.587h1.218v5.173H16.77a2.59 2.59 0 0 1-2.587-2.586Zm6.175 3.772V31.963h3.918c.668 1.934 2.5 5.373 7.26 6.59a3.351 3.351 0 0 0 3.96-2.09c.936.336 2.305.557 4.254.34a4.648 4.648 0 0 0 2.847-1.404 1.185 1.185 0 1 0-1.713-1.638c-.37.386-.863.629-1.394.687-2.732.3-3.731-.462-3.884-.596a1.103 1.103 0 0 0-1.18-.474 1.207 1.207 0 0 0-.915 1.009l-.192 1.083a.988.988 0 0 1-.805.805.946.946 0 0 1-.39-.017c-3.107-.795-4.596-2.797-5.295-4.294h21.046v13.048a10.712 10.712 0 0 1-10.7 10.7h-6.117a10.712 10.712 0 0 1-10.7-10.701Zm10.7 13.07h6.117c.437 0 .869-.022 1.295-.065v3.17l-3.108 4.08H32.87l-3.107-4.08v-3.17c.426.043.858.065 1.294.065Z"/></svg>