<svg xmlns="http://www.w3.org/2000/svg" width="62" height="64" fill="none">
    <path fill="#fff" fill-rule="evenodd"
        d="M6.905 63.964h47.39c3.738 0 6.77-3.157 6.77-7.052V7.548c0-3.894-3.032-7.052-6.77-7.052H6.904c-3.74 0-6.77 3.158-6.77 7.052v49.364c0 3.895 3.03 7.052 6.77 7.052Zm19.5-26.207V25.785l10.974 6.007-10.974 5.965ZM50.503 23.71s-.397-2.936-1.615-4.23c-1.544-1.697-3.276-1.705-4.07-1.804-5.683-.431-14.21-.431-14.21-.431h-.018s-8.526 0-14.21.431c-.795.099-2.525.107-4.07 1.805-1.218 1.293-1.614 4.229-1.614 4.229s-.406 3.449-.406 6.896v3.234c0 3.449.406 6.896.406 6.896s.396 2.936 1.613 4.23c1.546 1.697 3.576 1.644 4.48 1.821 3.25.328 13.81.429 13.81.429s8.536-.013 14.22-.445c.793-.1 2.524-.108 4.07-1.806 1.217-1.293 1.614-4.229 1.614-4.229s.406-3.447.406-6.896v-3.234c0-3.447-.406-6.896-.406-6.896Z"
        clip-rule="evenodd" />
</svg>